<?xml version="1.0" encoding="UTF-8"?>
<svg width="89px" height="35px" viewBox="0 0 89 35" version="1.1" xmlns="http://www.w3.org/2000/svg" xmlns:xlink="http://www.w3.org/1999/xlink">
    <!-- Generator: sketchtool 49 (51002) - http://www.bohemiancoding.com/sketch -->
    <title>CA9F7538-F7B4-4869-9A9A-18FE1E00C77F</title>
    <desc>Created with sketchtool.</desc>
    <defs/>
    <g id="Symbols" stroke="none" stroke-width="1" fill="none" fill-rule="evenodd">
        <g id="HEADER" transform="translate(-30.000000, -30.000000)">
            <g id="Logo" transform="translate(30.000000, 30.000000)">
                <g id="LogoIPPON-SVG" stroke-width="1" fill-rule="evenodd">
                    <path d="M6.65270915,11.1111111 C6.65270915,7.54561291 6.65299479,3.98011471 6.65356608,0.414616505 C6.65356608,-0.034296697 6.59015273,0.0156202778 7.04998524,0.0147713497 C10.3977533,0.00854587664 13.7455214,0.00362209341 17.0932895,0 C17.6417293,0 18.1901692,0.00628206826 18.738609,0.0325988407 C20.2043144,0.102890091 21.5013746,0.613944833 22.6056239,1.56864942 C23.8459549,2.64084567 24.6417068,3.97688878 24.8679382,5.60326532 C25.1210774,7.42353704 24.7094048,9.09083192 23.5638511,10.5533653 C22.7434194,11.6011124 21.7322335,12.4130273 20.4703077,12.8913134 C19.8803921,13.1149211 19.2705956,13.2544849 18.6364621,13.2799527 C18.3622422,13.2909888 18.0880222,13.3011759 17.8138023,13.3015155 C15.7343013,13.3033266 13.6548003,13.3036661 11.5752993,13.3025342 C11.4724669,13.3025342 11.3696344,13.3004968 11.2668019,13.3049112 C11.1399752,13.3105141 11.1163238,13.3370007 11.1116963,13.4726594 C11.1086113,13.5631552 11.1104966,13.6536509 11.1104966,13.7443164 C11.1104966,16.4156103 11.1104966,19.0869042 11.1104966,21.7581981 C11.1104966,21.8486938 11.1123819,21.9393594 11.1104966,22.0298551 C11.1055264,22.2094883 11.0972998,22.2208639 10.9118585,22.2212035 C9.56361064,22.2225618 8.21536274,22.2225618 6.86711484,22.2212035 C6.84432031,22.2212035 6.82135439,22.2212035 6.79855986,22.2201848 C6.6847586,22.212884 6.65939326,22.1901327 6.65493718,22.0775649 C6.65082388,21.9756935 6.65305192,21.8738221 6.65305192,21.7719507 C6.6528234,18.2185639 6.65270915,14.6649507 6.65270915,11.1111111 Z M14.7051769,4.39388228 L11.4846354,4.39388228 C11.3932859,4.39388228 11.3019364,4.39201464 11.2104155,4.39507078 C11.0685067,4.39999457 11.0481116,4.41884077 11.0438269,4.55025485 C11.0409133,4.6405808 11.0438269,4.73124633 11.0438269,4.82191185 C11.062451,6.13378881 11.0809037,7.44566577 11.099185,8.75754273 C11.1031269,9.06315686 11.099185,9.04770637 11.4076824,9.04753658 C13.291459,9.04753658 15.1752926,9.04753658 17.0591834,9.04753658 C17.6710366,9.04753658 18.2609522,8.926819 18.8296157,8.70949339 C19.2390603,8.55312083 19.6027445,8.32357066 19.9033581,8.00131754 C20.1652381,7.72049211 20.3424527,7.39484327 20.4175204,7.02063575 C20.48214,6.68606482 20.4802188,6.34221561 20.4118646,6.00837383 C20.3499937,5.69308191 20.2211104,5.40240892 20.0005347,5.16301118 C19.625539,4.7563746 19.1658779,4.50084723 18.606812,4.44227119 C18.3003657,4.4091769 17.9923238,4.39268314 17.684062,4.39286357 C16.6917287,4.39625928 15.6983671,4.3937125 14.7051769,4.3937125 L14.7051769,4.39388228 Z" id="Shape" fill="#E32921" fill-rule="nonzero"/>
                    <path d="M26.604651,11.106612 C26.604651,7.54249501 26.604651,3.97832147 26.604651,0.414091329 C26.604651,-0.0388794237 26.5482412,0.0159592394 27.0014057,0.0151103437 C30.3494158,0.00865873628 33.697426,0.00362195505 37.0454362,0 C37.5598113,0 38.0738435,0.00905488762 38.5875327,0.0271646628 C41.9271986,0.144821609 44.0289351,2.58709458 44.6084644,4.67911318 C45.268922,7.0631519 44.7776938,9.20067131 43.0936298,11.045831 C42.4672924,11.7319085 41.7391088,12.2901424 40.8924474,12.6926887 C39.9790887,13.1271535 39.0120636,13.3072892 38.0040599,13.3038936 C37.0900154,13.3006678 36.1757994,13.3038936 35.2615835,13.3038936 L31.5258488,13.3038936 C31.4344615,13.3038936 31.3429027,13.3020261 31.2515154,13.3050821 C31.0755991,13.3108546 31.0678835,13.3195133 31.0629112,13.5088171 C31.0605108,13.5993093 31.0629112,13.6898016 31.0629112,13.7804637 C31.0629112,16.45075 31.0629112,19.1210364 31.0629112,21.7913228 C31.0629112,21.9042259 31.0599964,22.0172988 31.0521093,22.1298624 C31.0498988,22.1770165 31.0114546,22.2145668 30.9638083,22.2161102 C30.9070556,22.2210338 30.8499599,22.2222222 30.7923499,22.2222222 C29.4892664,22.2222222 28.1866401,22.2222222 26.8844711,22.2222222 C26.8273754,22.2222222 26.7701083,22.2222222 26.7130127,22.2176382 C26.6444294,22.2130541 26.6130525,22.1667044 26.6101377,22.1057537 C26.604651,22.0038862 26.6056798,21.9020188 26.6056798,21.8001513 C26.6049939,18.235242 26.604651,14.6707289 26.604651,11.106612 Z M34.6904557,4.3932051 C33.548543,4.3932051 32.4065732,4.3932051 31.2645463,4.3932051 C31.0013577,4.3932051 30.9982714,4.39677046 31.0006718,4.657721 C31.0130168,6.01459591 31.0262191,7.37147082 31.0402787,8.72834573 C31.0435364,9.06501777 31.043365,9.04617229 31.3585054,9.04600251 C33.1970534,9.04600251 35.0356014,9.04226737 36.8741493,9.04854919 C37.2851399,9.04961403 37.6949603,9.00513816 38.0959616,8.91595168 C38.6242248,8.79948319 39.1211111,8.60831188 39.5549007,8.27656343 C40.5385573,7.52427205 40.5526169,6.39014738 40.2407342,5.62104786 C40.1690304,5.44171429 40.0634727,5.27755296 39.9297087,5.13734708 C39.5466707,4.73768698 39.0851048,4.48963965 38.5251219,4.4371779 C38.2067237,4.40729677 37.8879826,4.39014907 37.5676984,4.39150731 C36.6095891,4.39558201 35.6494223,4.39303532 34.6904557,4.3932051 Z" id="Shape" fill="#E32921" fill-rule="nonzero"/>
                    <path d="M88.1204819,15.2605872 L88.1204819,21.7576256 C88.1204819,21.8249524 88.1204819,21.8922792 88.1204819,21.9596061 C88.1169812,22.2166262 88.1166478,22.2194876 87.860598,22.2198242 C86.5825716,22.2209463 85.3045451,22.2209463 84.0265186,22.2198242 C83.9710078,22.2198242 83.9153303,22.2198242 83.8598195,22.2161213 C83.7966406,22.211745 83.7566328,22.1755568 83.7541323,22.1112597 C83.7496314,21.9993289 83.749298,21.8870614 83.749298,21.7746256 C83.749298,17.712574 83.749298,13.6505223 83.749298,9.58847071 C83.749298,9.16094538 83.7284606,8.73695472 83.6394433,8.31750861 C83.4122324,7.24734876 82.8614586,6.3724367 82.0629699,5.64732682 C81.333828,4.98516752 80.4863297,4.58204817 79.5156408,4.41861231 C77.0403258,3.99983947 74.5491744,5.56316829 73.8428703,7.99332996 C73.7127232,8.44624622 73.647933,8.91574398 73.6504995,9.38733182 C73.6530556,13.5167103 73.6530556,17.6460887 73.6504995,21.7754672 C73.6504995,22.2879926 73.7100111,22.2184777 73.2070799,22.2196559 C72.0068464,22.2225173 70.8066128,22.2196559 69.6063793,22.2208341 C69.257478,22.2208341 69.2773152,22.2390124 69.2773152,21.8956456 C69.2773152,19.4269954 69.2773152,16.9583452 69.2773152,14.4896951 C69.2773152,12.8514091 69.2773152,11.213123 69.2773152,9.57483703 C69.2760124,8.92398069 69.3333149,8.2743524 69.4485152,7.63397304 C69.7374048,6.0408521 70.412036,4.63473141 71.4520718,3.40669016 C72.5636214,2.09381712 73.8980477,1.09839005 75.5230306,0.523923932 C76.4312073,0.202943305 77.3670561,0.0358044675 78.3290766,0.00567571433 C79.46013,-0.0295025505 80.5685124,0.096566925 81.6480558,0.447676305 C82.9046336,0.856350119 84.0126826,1.52372725 84.989706,2.41563933 C86.1464311,3.47149223 87.0344373,4.71518696 87.5670409,6.20411965 C87.8536992,7.00684556 88.0276432,7.84614106 88.0838081,8.69756853 C88.1113135,9.10152946 88.1189816,9.50431218 88.1188149,9.90827311 C88.1193706,11.6924339 88.1199263,13.4765386 88.1204819,15.2605872 Z" id="Shape" fill="#E32921" fill-rule="nonzero"/>
                    <path d="M62.8037226,20.6725876 C61.5129589,21.6900908 60.0678737,22.3304353 58.4678041,22.6078893 C57.4914848,22.7770434 56.5118504,22.8293024 55.5295638,22.7216901 C52.9603025,22.4404543 50.7286919,21.383413 48.8644028,19.5215146 C47.3443946,18.0048005 46.3672466,16.1595768 45.8374815,14.0503077 C45.6055849,13.1270083 45.4512635,12.1908159 45.4459592,11.2350265 C45.4363452,9.54417313 45.8207398,7.94356964 46.530519,6.42788702 C48.1276049,3.01798789 51.1459068,0.880526418 54.2439386,0.234680934 C55.3357917,0.00707927807 56.4339437,-0.0604792194 57.5400522,0.0562439862 C58.9267902,0.202534779 60.2462302,0.596024348 61.4866032,1.26181076 C61.5608632,1.30169262 61.6548484,1.31922689 61.6880002,1.41807202 C61.6245145,1.40088156 61.5585425,1.3909111 61.4977091,1.36650065 C61.2502312,1.26920266 61.0060685,1.16227801 60.7572645,1.06893383 C60.0367111,0.798871745 59.2881444,0.65773809 58.5274773,0.606338622 C57.8441332,0.560613825 57.1579639,0.601019985 56.4840029,0.726671824 C55.7191918,0.868149288 54.9818967,1.09850142 54.2814001,1.4436858 C53.0038971,2.07337226 51.9246416,2.96022795 51.0656795,4.13313286 C49.9632178,5.6379855 49.3915157,7.34001268 49.2968674,9.21807015 C49.2592402,9.96362029 49.3388044,10.7034976 49.4889819,11.4332325 C49.7150777,12.5448753 50.1417128,13.6021906 50.7464281,14.5495186 C50.7991394,14.6322047 50.8357721,14.7365508 50.9498141,14.7558041 L50.9438468,14.7533974 C50.9390398,14.8020464 50.9566102,14.8305826 51.0071667,14.829895 L51.0050118,14.8269726 C50.9944032,14.8764811 51.0142943,14.9026106 51.0621986,14.9075958 L51.0603752,14.9029544 C51.0459542,14.9734353 51.0711496,15.0188181 51.1391107,15.0375557 L51.136127,15.03343 C51.1321488,15.0779533 51.1527029,15.1045985 51.193148,15.1154285 L51.1913247,15.1121623 C51.1913247,15.1785174 51.2195037,15.2245879 51.2819947,15.2452164 C51.4167566,15.4117919 51.5437279,15.5859313 51.6874407,15.7437397 C53.3720473,17.5942924 55.4170136,18.3131973 57.8370919,17.8375374 C61.264818,17.020475 63.3807289,13.635502 62.6848735,10.0674507 C62.071566,6.92022171 59.413458,4.91942438 56.6975002,4.84344256 C56.3888574,4.83484733 56.0795514,4.84653684 55.7705771,4.8487716 C55.7896393,4.8375978 55.8078728,4.81903211 55.8279296,4.81645354 C56.198732,4.76660121 56.5672138,4.70334033 56.9439835,4.7060908 C57.5067346,4.71004461 58.0696515,4.70024605 58.6262695,4.80321689 C59.6768487,4.99746906 60.6715673,5.35107676 61.5999822,5.90529711 C62.6986315,6.56128496 63.6119625,7.4269964 64.3479315,8.49211714 C65.234078,9.77469716 65.7542291,11.2126789 65.9047381,12.7771824 C65.9866229,13.6293134 65.9655715,14.4874611 65.8107528,15.3406235 C65.5977528,16.5150755 65.1891574,17.6016843 64.5634179,18.6025127 C64.2734265,19.0623762 63.9455439,19.4953052 63.5834519,19.8964385 C63.5274255,19.9590117 63.434269,20.0073169 63.470736,20.1221492 L63.4732223,20.1197425 C63.4178589,20.1073654 63.3954815,20.131432 63.4027749,20.1885043 L63.4049297,20.1867853 C63.3285149,20.1591087 63.2908877,20.1946929 63.277627,20.2705028 L63.282434,20.26483 C63.2366846,20.2632828 63.211655,20.2854585 63.2086713,20.3335918 L63.2118207,20.3308413 C63.1244659,20.329638 63.0760643,20.3729579 63.0697655,20.4645831 L63.0740752,20.4613169 C62.9729623,20.4613169 62.915444,20.5230306 62.8751646,20.6103582 L62.8812977,20.6053729 C62.8437325,20.6069375 62.8118881,20.6345289 62.8037226,20.6725876 Z" id="Shape" fill="#E32921" fill-rule="nonzero"/>
                    <path d="M0.0022665835,11.1143512 C0.0022665835,7.5492098 0.0022665835,3.98401178 0.0022665835,0.418757134 C0.0022665835,-0.0540091538 -0.0558697502,0.00255971928 0.416722382,0.0017103368 C1.63207295,-0.00032818115 2.84748035,-0.00032818115 4.06294458,0.0017103368 C4.14239188,0.0017103368 4.22200968,0.00289947227 4.30162747,0.00272959578 C4.38124526,0.00255971928 4.43153916,0.0322881061 4.43153916,0.119604625 C4.43153916,0.221530522 4.43324404,0.32345642 4.43324404,0.425382317 C4.43324404,7.32938961 4.43324404,14.2333969 4.43324404,21.1374042 C4.43324404,21.4431819 4.4351194,21.7489596 4.43153916,22.0547373 C4.43000477,22.1906385 4.40392014,22.2151007 4.27673625,22.2205367 C4.20854114,22.2234246 4.14034603,22.2217259 4.07215092,22.2217259 L0.357733609,22.2217259 C0.278286303,22.2217259 0.198668508,22.2227451 0.119050714,22.2191777 C0.0554587715,22.2162898 0.0106204848,22.1828242 0.00755170474,22.1172518 C0.0022665835,22.004284 0.00141414459,21.8911462 0.00141414459,21.7774988 C0.00186877867,18.22255 0.00215292498,14.6681675 0.0022665835,11.1143512 Z" id="Shape" fill="#E32921" fill-rule="nonzero"/>
                    <path d="M63.4455967,19.9986748 C63.4075269,19.884383 63.5044162,19.8363052 63.5622067,19.7740265 C63.9368082,19.3747812 64.2760184,18.9438899 64.5760284,18.4861908 C65.2233858,17.4900729 65.6459259,16.4085784 65.8664561,15.2396541 C66.0266234,14.3905073 66.0485736,13.5362275 65.9636883,12.6882784 C65.8079796,11.1313095 65.2700299,9.69992476 64.3530974,8.4233814 C63.5918737,7.36258944 62.6468177,6.501637 61.5102124,5.84873666 C60.5498942,5.29695375 59.5209818,4.94518145 58.4337643,4.75184356 C57.8577449,4.64918627 57.2753805,4.6592809 56.693359,4.65517461 C56.3035727,4.65243709 55.9216747,4.71540022 55.5387478,4.76501791 C55.5178266,4.76775544 55.4991347,4.78606265 55.4794139,4.79718386 C55.319075,4.86562205 55.1439884,4.85740947 54.9767902,4.89060199 C53.4701194,5.1889925 52.1923817,5.89595901 51.1993097,7.06796303 C49.8227964,8.69337007 49.3681886,10.5666944 49.769293,12.6506374 C49.8841882,13.2470762 50.1000883,13.8084405 50.3796095,14.347049 C50.4296833,14.4435469 50.5241717,14.5287524 50.4907321,14.6565607 C50.3727501,14.6368848 50.3348518,14.5330298 50.2803195,14.4512462 C49.6547126,13.5083769 49.2133381,12.456038 48.9794312,11.3496273 C48.823894,10.623327 48.7417525,9.88710321 48.7806797,9.14489103 C48.8785978,7.27567294 49.470051,5.58165662 50.6106004,4.08388681 C51.4994092,2.91667347 52.6159506,2.0339919 53.9374171,1.40709807 C54.6621144,1.06336726 55.4248815,0.834270416 56.2161151,0.693458838 C56.91336,0.5683984 57.623235,0.528182418 58.3301872,0.573692004 C59.1171337,0.625020647 59.8915617,0.765318939 60.6370088,1.03410993 C60.8942369,1.12701478 61.1470064,1.23343616 61.4030341,1.3302762 C61.4659692,1.35405848 61.5342204,1.3644953 61.5998993,1.38160485 L61.5928684,1.37784075 C61.6252791,1.43310459 61.6804974,1.44319922 61.7370876,1.45055632 L61.7293708,1.44662113 C61.7636679,1.49794977 61.8204295,1.50718893 61.8746189,1.52002109 L61.8655302,1.51488822 L62.0094064,1.58982804 L62.0027185,1.58572175 L62.1210434,1.65672638 C62.1724891,1.67913988 62.2280503,1.69505176 62.2753803,1.72516457 C64.9848496,3.4475257 66.6825551,5.87428692 67.3684967,9.00544822 C67.5442692,9.81062353 67.6310409,10.6272622 67.6118345,11.449376 C67.5459841,14.2580794 66.5940686,16.726816 64.7257352,18.8372787 C64.3920246,19.2136888 64.0281326,19.5596438 63.6469205,19.8874628 C63.5882725,19.9367383 63.5399136,20.0108226 63.4455967,19.9986748 Z" id="Shape" fill="#E32921" fill-rule="nonzero"/>
                    <path d="M0.0378474827,26.6817194 C0.0769260375,26.6738959 0.116399759,26.6688684 0.156034826,26.6666667 C0.769453677,26.6709169 1.38318478,26.6698543 1.99644751,26.6843758 C2.33992459,26.6926991 2.68199654,26.7412222 3.01126617,26.8508418 C3.86543123,27.1341882 4.46323749,27.7499353 4.77033723,28.6980832 C5.06369789,29.6044375 5.05870186,30.5221256 4.7659657,31.4313134 C4.6406199,31.8203902 4.44370196,32.1747498 4.1882997,32.4708405 C3.79517456,32.9300387 3.30618809,33.1680497 2.75771763,33.2571267 C2.45967319,33.3056498 2.15959912,33.3373491 1.85655866,33.3329219 C1.33665925,33.3253069 0.816603713,33.3309739 0.296704305,33.3309739 C0.234253926,33.3309739 0.171803546,33.3309739 0.109353167,33.3297342 C0.0495569288,33.3297342 0.0113060714,33.2978577 0.00787130057,33.2277295 C0.00381202591,33.145382 0.00240689237,33.0628573 0.00240689237,32.9798014 C0.00240689237,30.9863415 0.00266710229,28.9928815 0.00318752212,26.9994216 C0.0044365297,26.8965314 -0.0172649771,26.7881514 0.0378474827,26.6817194 Z M0.589284332,29.9917366 C0.589284332,30.8063575 0.589284332,31.6209784 0.589284332,32.4355992 C0.589284332,32.675204 0.592406851,32.6776833 0.790374554,32.6792771 C1.02971563,32.6810481 1.26968122,32.690611 1.50855392,32.6744957 C1.90261581,32.6477549 2.29855122,32.6539531 2.68933446,32.5682408 C3.43592875,32.404136 3.94318196,31.9204991 4.21109408,31.1173302 C4.37393345,30.6299744 4.38798478,30.122253 4.33146719,29.6161255 C4.22108614,28.6263612 3.67698721,27.6909639 2.55163138,27.4533071 C2.20237763,27.379637 1.84906461,27.3617508 1.49668834,27.3387289 C1.23736314,27.3210197 0.97663281,27.3288118 0.716058603,27.3295201 C0.610517461,27.3295201 0.594280363,27.3530733 0.590064962,27.4784541 C0.587410821,27.5609787 0.588972081,27.6436805 0.588972081,27.7263822 C0.589180248,28.4811461 0.589284332,29.2362643 0.589284332,29.9917366 Z" id="Shape" fill="#100F12" fill-rule="nonzero"/>
                    <path d="M54.867743,29.9814188 C54.867743,29.0015293 54.867743,28.0222301 54.867743,27.0435212 C54.867743,26.9491331 54.867743,26.8547449 54.871644,26.7601797 C54.8735165,26.7061677 54.9028522,26.676771 54.9496644,26.6716354 C54.9808726,26.6686249 55.0120808,26.6664999 55.043289,26.666677 C55.6566857,26.6719896 56.2700825,26.6721667 56.8831671,26.6863338 C57.1532821,26.695117 57.4219563,26.7343881 57.6852173,26.8035663 C58.7077533,27.0621155 59.378261,27.7625004 59.6890944,28.8919706 C59.9465619,29.8275289 59.9100483,30.7570662 59.5450687,31.6503004 C59.1549665,32.6037447 58.4839906,33.1312912 57.5675625,33.2676494 C57.237583,33.3152704 56.9051055,33.3370447 56.5724897,33.3328179 C56.0527175,33.3287449 55.5327892,33.3328179 55.013017,33.3305158 C54.8828789,33.3305158 54.8694594,33.314932 54.8688352,33.1660006 C54.8666507,32.6347352 54.867743,32.1034698 54.867743,31.5730899 C54.867743,31.0427099 54.867743,30.51233 54.867743,29.9814188 Z M55.4489953,29.9762832 C55.4489953,30.3415577 55.4489953,30.7067731 55.4489953,31.0719295 C55.4489953,31.5079213 55.4500876,31.943736 55.4489953,32.3797278 C55.448059,32.6871534 55.4422855,32.6837887 55.7283085,32.6807782 C55.9155575,32.6790073 56.1028066,32.6880388 56.2888074,32.6772364 C56.7029399,32.6533295 57.1186328,32.6579338 57.5291764,32.5709834 C58.3538005,32.3979089 58.8843395,31.8559592 59.1207935,30.9451342 C59.2401648,30.4866522 59.2504635,30.0214408 59.1882032,29.5461353 C59.0423049,28.4356136 58.3696127,27.6426115 57.3912363,27.4497621 C56.7953161,27.3321754 56.1937785,27.3238522 55.5916167,27.327394 C55.5811619,27.327394 55.5708632,27.327394 55.5604085,27.327394 C55.482388,27.3296962 55.4521161,27.3826456 55.4511798,27.4641063 C55.4502436,27.545567 55.4500876,27.6289757 55.4500876,27.7120302 C55.4492553,28.4673715 55.4488912,29.2220635 55.4489953,29.9761061 L55.4489953,29.9762832 Z" id="Shape" fill="#100F12" fill-rule="nonzero"/>
                    <path d="M81.6454181,29.0370311 C81.7355727,28.9451614 81.8118847,28.8649904 81.8910362,28.787056 C82.0761371,28.605381 82.285019,28.4582861 82.5416402,28.3863731 C82.750522,28.3277072 82.9675675,28.3024172 83.1675759,28.3918784 C83.3388341,28.4684365 83.5093825,28.4560496 83.6850775,28.4594904 C84.2208586,28.4696408 84.0797702,28.3700293 84.2998326,28.8390123 C84.7589468,29.8177519 85.2079452,30.8002765 85.6663494,31.7809086 C85.7082323,31.8703698 85.72172,31.9825404 85.83885,32.0410342 C85.8935107,31.926283 85.9497686,31.8135964 86.0014123,31.6988452 C86.4502332,30.7032455 86.9022485,29.7090222 87.3432608,28.7101538 C87.4220573,28.5317475 87.5104372,28.4243941 87.7290799,28.4557055 C87.8547285,28.4729096 87.9853462,28.4589743 88.1051383,28.4589743 C88.1553622,28.5966069 88.0696443,28.6797026 88.0291812,28.7686476 C87.5112063,29.9221233 86.990096,31.0743374 86.4658505,32.2252898 C86.0960036,33.0421392 85.7265708,33.8592179 85.3575521,34.676526 C85.3243653,34.7498154 85.2902911,34.8227607 85.2563944,34.895878 C85.2246273,34.9646943 85.1742259,35.0013389 85.0920574,34.9999626 C84.9154751,34.9970379 84.7388927,34.9991024 84.5695866,34.9991024 C84.5149259,34.895878 84.5789925,34.8305025 84.6089849,34.7637507 C84.8585073,34.2080592 85.1078523,33.6520235 85.3689102,33.1013212 C85.4398981,32.95285 85.4398981,32.8317334 85.3701525,32.6815418 C84.7637385,31.3783333 84.165843,30.07134 83.565108,28.7655509 C83.5459413,28.723745 83.52429,28.6829713 83.5024612,28.6423697 C83.4927448,28.6225056 83.4731912,28.6088663 83.4506748,28.606247 C83.4281585,28.6036277 83.4058312,28.612395 83.3915426,28.6294667 C83.3560487,28.6754015 83.3166504,28.7199601 83.2928695,28.7712282 C83.1968584,28.9776771 83.0621588,29.0838262 82.8252368,28.9616773 C82.4912388,28.9424087 82.2266314,29.0705791 82.0305274,29.3274359 C81.8298092,29.5903141 81.7185356,29.8915574 81.6727485,30.2132736 C81.6241838,30.5541079 81.6004624,30.8978369 81.6017606,31.241905 C81.6038902,31.80379 81.6017606,32.365503 81.6008732,32.9279041 C81.6008732,33.0080751 81.6008732,33.0884181 81.5951942,33.1687611 C81.5921772,33.2181368 81.5666216,33.2580503 81.5100087,33.2587384 C81.3447844,33.260975 81.1793826,33.2618352 81.0141583,33.2587384 C80.9609174,33.2577062 80.930925,33.2179648 80.9254235,33.1689332 C80.9188571,33.1001169 80.9167275,33.0313006 80.9167275,32.9624843 C80.9167275,31.5632198 80.9163725,30.164414 80.9156627,28.766067 C80.9156627,28.432136 80.9293278,28.4574259 81.2194908,28.4579421 L81.2904787,28.4579421 C81.6099242,28.4579421 81.6005183,28.4329962 81.602293,28.753508 C81.6031803,28.8384961 81.575495,28.9317422 81.6454181,29.0370311 Z" id="Shape" fill="#151417" fill-rule="nonzero"/>
                    <path d="M40.995315,28.4590576 C41.0382351,28.5534945 40.9882207,28.6124961 40.9609079,28.6728738 C40.0379473,30.7156249 39.1139817,32.7579172 38.189011,34.7997508 C38.1748226,34.8310578 38.1558455,34.8608166 38.1439626,34.8928116 C38.1166498,34.9660906 38.0666354,35.0010099 37.9843422,34.9999778 C37.8069862,34.9977416 37.6314038,34.9999778 37.4650439,34.9999778 C37.3941015,34.896768 37.4696551,34.8305417 37.4982094,34.7662076 C37.7507644,34.1992419 38.0084035,33.634455 38.2711269,33.071847 C38.329477,32.9474792 38.334975,32.8463336 38.2750287,32.7174934 C37.658421,31.3937705 37.046129,30.0681555 36.4381526,28.7406483 C36.4101304,28.6797545 36.4003758,28.6057875 36.3086828,28.5835974 C36.26594,28.6465553 36.2109596,28.7086532 36.1774393,28.780384 C36.0876972,28.9716662 35.9757856,29.0361723 35.7384832,28.980095 C35.413035,28.9030317 35.1409709,29.0602546 34.9378983,29.3108823 C34.7348257,29.5615101 34.6292988,29.8484333 34.5750279,30.1565145 C34.5273195,30.4278497 34.5035858,30.7026404 34.5040855,30.9778924 C34.5040855,31.6085042 34.5001837,32.239116 34.4980554,32.8700718 C34.4980554,32.9617565 34.4980554,33.0536132 34.4957498,33.1452979 C34.4937989,33.2085999 34.4643578,33.2586567 34.3934154,33.2596888 C34.2282969,33.262269 34.0630011,33.2607209 33.8980601,33.2564205 C33.8434344,33.2550443 33.816831,33.2137604 33.8132839,33.1640477 C33.8084953,33.0952412 33.8072538,33.0264347 33.8072538,32.9576281 C33.8072538,31.5585621 33.8072538,30.1594961 33.8072538,28.7604301 C33.8072538,28.4508008 33.798386,28.4551012 34.1154985,28.4581975 L34.1509697,28.4581975 C34.5248362,28.4581975 34.497346,28.4310189 34.5001837,28.7884688 C34.5001837,28.8622638 34.4677275,28.9460357 34.5567602,29.0282595 C34.6186575,28.9610012 34.6768302,28.8954629 34.7376634,28.832505 C34.8841594,28.6809586 35.0467949,28.5486781 35.2415317,28.4592296 C35.5075657,28.33727 35.7883203,28.2820528 36.0644636,28.3942074 C36.2380951,28.4647341 36.4065833,28.4556172 36.5816337,28.4588856 C37.1154752,28.4686905 36.9744772,28.3751136 37.1954628,28.8442021 C37.6565883,29.8221148 38.1029934,30.805188 38.5602172,31.785681 C38.6018958,31.8749575 38.6123598,31.9912405 38.7375731,32.0402651 C39.0532668,31.3386679 39.3690196,30.6370134 39.6848315,29.9353015 C39.8828791,29.4950545 40.0804536,29.054578 40.2775553,28.6138722 C40.3231358,28.5106625 40.3811312,28.4463284 40.5136161,28.4557893 C40.6760742,28.4681744 40.8408379,28.4590576 40.995315,28.4590576 Z" id="Shape" fill="#151417" fill-rule="nonzero"/>
                    <path d="M76.050723,30.8993114 C76.0339205,31.2319436 76.1159921,31.5621706 76.2868465,31.849389 C76.7069288,32.5737933 77.3997536,32.8625324 78.2523548,32.7127085 C78.7370386,32.6274845 79.1263747,32.379653 79.4165631,31.9848952 C79.4839283,31.8931942 79.5469751,31.7974023 79.6131312,31.7055308 C79.6502684,31.6533737 79.6994968,31.6307041 79.7611618,31.6617257 C79.9033196,31.7338252 80.0442683,31.8084815 80.1833169,31.8807515 C80.0214677,32.3239164 79.628677,32.761968 79.1799213,33.0188332 C78.8344589,33.2168939 78.4560049,33.3102995 78.0623505,33.3292192 C77.3054424,33.3655246 76.6310998,33.1642255 76.0852692,32.6186212 C75.5309748,32.0644945 75.3283611,31.3874747 75.381735,30.6281286 C75.4003514,30.3325422 75.4762873,30.0432287 75.6054219,29.7758882 C76.0434683,28.8813767 76.7516662,28.368328 77.7687075,28.3350906 C78.6537821,28.3062849 79.3842624,28.6309885 79.9085015,29.3559041 C80.212163,29.7757177 80.3446478,30.2505861 80.36123,30.7609076 C80.3645119,30.8631765 80.331002,30.8943684 80.2163085,30.8972661 C80.1242428,30.8996523 80.0321771,30.8981183 79.9399386,30.8981183 L76.050723,30.8981183 L76.050723,30.8993114 Z M79.6309225,30.3368328 C79.4034355,29.2783503 78.4929694,28.9323407 77.8172449,28.9483628 C77.0553276,28.9664303 76.3030832,29.439935 76.1452069,30.3368328 L79.6309225,30.3368328 Z" id="Shape" fill="#151417" fill-rule="nonzero"/>
                    <path d="M61.6276847,30.9295429 C61.6411668,31.4876658 61.8394224,31.9666659 62.2687745,32.3401121 C62.7181769,32.7302695 63.2517559,32.814167 63.8207685,32.7171392 C64.3453593,32.6276145 64.75155,32.3498319 65.0538595,31.9156795 C65.2944627,31.5707107 65.1821121,31.5835 65.6069702,31.7929026 C65.627539,31.8029635 65.6482806,31.8130244 65.6679852,31.8244495 C65.7692736,31.8827685 65.7875954,31.9240351 65.7362598,32.0132188 C65.3196983,32.7362379 64.7213017,33.1992088 63.8639802,33.3091963 C63.5096034,33.354226 63.1499115,33.3361482 62.8020078,33.2558225 C61.8408052,33.0387463 60.9990399,32.1503196 60.9660261,31.0127583 C60.954791,30.6224303 60.9833108,30.2384117 61.1433672,29.8782664 C61.5709909,28.9197546 62.2986771,28.3606085 63.3787985,28.3343479 C64.3090615,28.3113273 65.0540324,28.6798282 65.565314,29.4632125 C65.8206092,29.8554163 65.9326141,30.291274 65.9512816,30.7528807 C65.9559484,30.8700302 65.9310585,30.894074 65.8152509,30.8983371 C65.7232963,30.9015771 65.6309959,30.8995308 65.5386956,30.8995308 C64.3526189,30.8995308 63.1665423,30.8998718 61.9804656,30.9005539 C61.8665594,30.9010655 61.7502333,30.879409 61.6276847,30.9295429 Z M65.1898902,30.3195808 C65.2213483,30.2500073 65.194557,30.1852084 65.1726055,30.1222853 C64.7665877,28.9997301 63.4975444,28.7190486 62.6519765,29.1243826 C62.1783755,29.3513492 61.8924864,29.7299111 61.735887,30.2143679 C61.7078857,30.3008233 61.7396896,30.342772 61.8274959,30.3473761 C61.8620653,30.3492519 61.8966348,30.3485698 61.9312042,30.3485698 C62.9643688,30.3485698 63.997591,30.3485698 65.0308709,30.3485698 C65.0837621,30.3478877 65.1425301,30.3613591 65.190063,30.3195808 L65.1898902,30.3195808 Z" id="Shape" fill="#151417" fill-rule="nonzero"/>
                    <path d="M28.408314,30.9237932 C28.3682371,31.9196653 29.1338453,32.7290458 30.1290324,32.7477973 C30.8519725,32.7616051 31.4211691,32.4832314 31.8274666,31.8893221 C32.0364888,31.583844 31.9744731,31.5928788 32.3292925,31.7785181 C32.3799069,31.805111 32.4310396,31.8310221 32.4799266,31.8606835 C32.4972011,31.8715934 32.5096388,31.892561 32.5369326,31.9234156 C32.1290804,32.6877926 31.5263712,33.1864106 30.6284398,33.3071017 C30.274481,33.3544601 29.9147317,33.3375908 29.5669184,33.2573251 C28.6698508,33.0539572 27.8049138,32.2699764 27.7185411,31.0569284 C27.6864104,30.6077461 27.7530902,30.1720307 27.952093,29.7652949 C28.3903485,28.8715328 29.1044786,28.3642211 30.1214316,28.3347301 C30.9934511,28.3093305 31.7150093,28.6298097 32.2351461,29.3389552 C32.5479883,29.7651244 32.6949948,30.2477184 32.6987952,30.7730997 C32.6987952,30.8644704 32.6701194,30.8937909 32.5778733,30.8973707 C32.4856272,30.9009505 32.3938993,30.8992458 32.3014804,30.8992458 C31.1165611,30.8992458 29.9315843,30.8996436 28.7465498,30.9004391 C28.6340925,30.9006096 28.5178347,30.8782783 28.408314,30.9237932 Z M31.9611717,30.3222127 C31.793263,29.3740715 30.9319537,28.9354582 30.1668637,28.9479024 C29.4104109,28.960176 28.6378929,29.4327124 28.4912319,30.3244288 C28.8009647,30.358011 31.6770053,30.3568177 31.9611717,30.3222127 Z" id="Shape" fill="#151417" fill-rule="nonzero"/>
                    <path d="M22.7207436,30.8963057 C22.7350952,32.1609534 21.7038274,33.3568185 20.1921213,33.3329829 C18.7617412,33.3103391 17.7207347,32.1868321 17.7350863,30.816797 C17.7485837,29.5255897 18.7730175,28.3111669 20.272593,28.3336405 C21.7817363,28.356114 22.7754165,29.6263801 22.7207436,30.8963057 Z M18.391503,30.8622549 C18.3933824,31.8369598 19.0621005,32.6128079 20.0335698,32.7154712 C20.7535438,32.7914045 21.3549458,32.5501544 21.7573043,31.9171495 C22.0648395,31.4329467 22.1586377,30.9083938 22.0077746,30.354557 C21.7397065,29.3704881 20.7540563,28.6634227 19.5801264,29.0790131 C18.9062827,29.3170283 18.3797142,30.0363521 18.391503,30.8617441 L18.391503,30.8622549 Z" id="Shape" fill="#151417" fill-rule="nonzero"/>
                    <path d="M46.5559771,30.8351379 C46.5107354,29.711053 47.4314465,28.325363 49.0579281,28.3333679 C50.6098036,28.3408618 51.5496358,29.6298124 51.542124,30.8603446 C51.5342707,32.1516796 50.5449287,33.3316281 49.0495627,33.3333312 C47.4983701,33.3352047 46.506638,32.0774219 46.5559771,30.8351379 Z M50.8752785,30.9063299 C50.8752785,30.495017 50.8208177,30.2339228 50.6598256,29.948814 C50.3101841,29.3297158 49.7891364,28.9684758 49.0647571,28.9609819 C48.3403778,28.953488 47.803282,29.2951416 47.4507383,29.9147508 C47.1461678,30.4492021 47.1203885,31.0199306 47.3493286,31.5848684 C47.6479238,32.3214846 48.2239444,32.7014593 49.0106378,32.7259848 C49.7901607,32.7499993 50.3593524,32.3902922 50.6987505,31.686036 C50.8233786,31.4264746 50.8873998,31.1524364 50.8751078,30.9063299 L50.8752785,30.9063299 Z" id="Shape" fill="#151417" fill-rule="nonzero"/>
                    <path d="M16.0677754,29.4414859 C15.9384323,29.5773935 15.785742,29.6650539 15.6252694,29.7542432 C15.5684581,29.6891775 15.5192734,29.6322662 15.4696219,29.5758645 C14.9924065,29.036821 14.4059266,28.8659172 13.7395995,28.9664889 C13.5338693,28.9956248 13.3345672,29.0646644 13.1510961,29.1703502 C12.4744963,29.5655016 12.1575979,30.2638967 12.2358886,31.0193731 C12.3250746,31.8789886 12.8447818,32.4761326 13.5255841,32.6621561 C14.2740931,32.8660175 14.9419767,32.6951137 15.4886109,32.074016 C15.5312583,32.0255989 15.5664346,31.9688575 15.6078369,31.9112667 C15.7818508,32.0184638 15.9289378,32.115128 16.0722892,32.2496766 C15.7876098,32.7268821 15.401137,33.0328441 14.9204974,33.1882884 C14.3733963,33.365308 13.8133764,33.3921498 13.2664309,33.2025587 C12.4242221,32.910867 11.8377422,32.313723 11.6797599,31.344532 C11.4498685,29.9344907 12.2116076,28.8484191 13.2254956,28.4892833 C13.8912002,28.2533138 14.5528579,28.2821941 15.1942814,28.5959708 C15.5616096,28.7746893 15.8626319,29.0448056 16.0677754,29.4414859 Z" id="Shape" fill="#151417" fill-rule="nonzero"/>
                    <path d="M8.1309552,32.2181896 C8.27764752,32.3437446 8.39057733,32.4691292 8.53710334,32.5548201 C8.8091993,32.7141063 9.09027643,32.7829315 9.39463806,32.6687906 C9.61085124,32.5876995 9.78897763,32.4532858 9.8801198,32.2326702 C9.9827379,31.984286 9.94664693,31.7432272 9.78997554,31.525678 C9.70299131,31.4054042 9.58889728,31.3144322 9.46266205,31.2415183 C9.28935887,31.1413469 9.1123967,31.0479899 8.93859457,30.949011 C8.72537512,30.827715 8.51681256,30.6990935 8.33768826,30.52686 C7.95881625,30.1626313 7.8641814,29.7076009 7.99790094,29.2176468 C8.13162047,28.7276928 8.48338268,28.4551175 8.97268973,28.3578422 C9.28104298,28.2965128 9.56710965,28.3549461 9.84502674,28.4811825 C10.0693895,28.5833982 10.2673077,28.7287149 10.4454341,28.9014595 C10.5119612,28.9655147 10.5141234,29.0052085 10.4517542,29.0718191 C10.3529614,29.1782938 10.2506759,29.2810206 10.1432346,29.392095 C10.0459387,29.3176479 9.95912077,29.2518891 9.87313445,29.1849378 C9.73128281,29.075594 9.56957612,28.9963086 9.39746546,28.9517156 C9.21342793,28.8989639 9.01645588,28.9234864 8.85011349,29.0198594 C8.52329896,29.2072549 8.3594759,29.5871567 8.6701576,29.9614366 C8.80088341,30.1188489 8.96021589,30.2415077 9.13252116,30.3457678 C9.28486829,30.4379323 9.44386814,30.5185124 9.59538368,30.6118694 C9.7387265,30.6973097 9.87752156,30.790515 10.0111782,30.8910887 C10.4542489,31.2345336 10.6084256,31.6951858 10.4935,32.2445953 C10.3845618,32.7693028 10.0544209,33.1188806 9.56444856,33.2577236 C8.90832473,33.4437562 8.31490272,33.2883883 7.83357892,32.7706656 C7.73811249,32.6684499 7.73561772,32.6403406 7.81877664,32.5422135 C7.91274621,32.4321612 7.99640408,32.3106949 8.1309552,32.2181896 Z" id="Shape" fill="#151417" fill-rule="nonzero"/>
                    <path d="M22.7228916,28.8998639 L23.3409416,28.8998639 C23.4704314,29.025244 23.515294,29.1931611 23.5909146,29.3449874 C23.9972269,30.1601976 24.3989509,30.9773196 24.8045835,31.7928484 C24.8458774,31.8760104 24.8666094,31.9747851 24.973158,32.0362804 C25.0270271,31.9351159 25.0795367,31.8435103 25.1260986,31.749515 C25.5397181,30.9026013 25.949599,30.0539351 26.3666171,29.2082959 C26.5584726,28.818773 26.4456364,28.9000232 26.9122753,28.8896678 C26.9907848,28.8879153 27.0694642,28.8896678 27.139647,28.8896678 C27.1828102,28.9745822 27.1331895,29.0293862 27.1066798,29.083553 C26.4428042,30.439847 25.7774558,31.7957161 25.1106347,33.1511604 C25.0878619,33.1993687 25.0621012,33.2462871 25.0334846,33.2916754 C24.9942298,33.3518961 24.9111321,33.3458422 24.8710277,33.2798862 C24.8431585,33.2340037 24.8200475,33.1855722 24.7962567,33.1376187 C24.1314748,31.7930077 23.4670327,30.4482375 22.8029305,29.103308 C22.7750613,29.0469108 22.7565385,28.9863714 22.7228916,28.8998639 Z" id="Shape" fill="#151417" fill-rule="nonzero"/>
                    <path d="M74.8043706,28.8972393 C74.8385738,28.9743722 74.8064228,29.0193796 74.7826515,29.0674087 C74.1041727,30.4391544 73.4258079,31.8111122 72.7475571,33.183282 C72.7291284,33.2215313 72.7082261,33.2587079 72.6849652,33.2946077 C72.6538402,33.3423188 72.5695291,33.3467718 72.5396013,33.3033548 C72.5085092,33.2593968 72.4807378,33.2134837 72.4564873,33.1659469 C71.7851912,31.8142399 71.1143512,30.4624268 70.4439671,29.1105077 C70.4343902,29.0914233 70.4201959,29.0742473 70.411474,29.0548448 C70.3593141,28.9374756 70.3824013,28.8977164 70.5122027,28.8980345 C70.6707348,28.8980345 70.8484208,28.8662271 70.9826686,28.9215719 C71.1242701,28.9800975 71.1434239,29.1663296 71.2099493,29.2986483 C71.6234668,30.1213458 72.0308277,30.9465879 72.4438321,31.7694445 C72.4860732,31.853575 72.505569,31.9520188 72.6086919,32.0283565 C72.6705998,31.9879611 72.6930029,31.9222789 72.7236149,31.8599365 C73.1528659,30.98587 73.5829149,30.1121747 74.0137621,29.2388504 C74.0327449,29.2005225 74.0580553,29.1639441 74.0707105,29.1238668 C74.1257778,28.947813 74.2389906,28.8671813 74.4443812,28.8938995 C74.5661448,28.9099622 74.6914998,28.8972393 74.8043706,28.8972393 Z" id="Shape" fill="#151417" fill-rule="nonzero"/>
                    <path d="M44.184313,28.4630219 C44.184313,27.9922423 44.184313,27.5622637 44.184313,27.1326338 C44.184313,27.0280161 44.1818053,26.9233984 44.1858562,26.8187807 C44.1904858,26.6986448 44.2186491,26.6697006 44.3401755,26.6676082 C44.4944948,26.6651671 44.6488141,26.6676082 44.8031334,26.6733622 C44.8291564,26.6734544 44.8540701,26.6828991 44.8723805,26.6996136 C44.890691,26.7163281 44.9008943,26.7389395 44.9007404,26.7624616 C44.9067203,26.8433659 44.9074919,26.9247933 44.9074919,27.0065695 C44.9074919,27.4365481 44.9074919,27.8665267 44.9086493,28.2968541 C44.9086493,28.4537806 44.9173297,28.4609295 45.0756999,28.4628475 C45.3071789,28.4656373 45.5386578,28.4628475 45.7701368,28.4644168 C45.9956359,28.4666835 45.9956359,28.4682527 45.9998797,28.6862062 C45.9998797,28.6978885 45.9998797,28.7093965 45.9998797,28.7210788 C45.9987223,29.0452192 46.0264998,29.0237726 45.6700222,29.0241213 C45.4514031,29.0241213 45.2327841,29.0255162 45.0141651,29.028306 C44.9562954,29.028306 44.9177155,29.0584708 44.9146291,29.1125232 C44.9098067,29.2052843 44.9078777,29.2982196 44.9078777,29.3915037 C44.9078777,30.5771707 44.9078777,31.7624308 44.9078777,32.9472841 C44.9078777,33.0402195 44.9078777,33.1331548 44.9038268,33.2262646 C44.9009333,33.2939173 44.857531,33.3308822 44.7826861,33.3321028 C44.6283668,33.333672 44.4740475,33.3321028 44.3197282,33.3333233 C44.2184562,33.3341951 44.1889426,33.2780503 44.1870136,33.2008076 C44.1846988,33.1078722 44.1848917,33.0149369 44.1848917,32.9218271 C44.1848917,31.724536 44.1848917,30.5276517 44.1848917,29.3311742 C44.1848917,29.0094748 44.1924148,29.0230751 43.8513691,29.02447 C43.7485539,29.02447 43.6457386,29.02447 43.5427305,29.02447 C43.2277262,29.0218546 43.2277262,29.0215059 43.2290765,28.7348534 C43.2304268,28.467904 43.2304268,28.4670322 43.5278773,28.4649398 C43.7319646,28.4618013 43.9360518,28.4630219 44.184313,28.4630219 Z" id="Shape" fill="#100F12" fill-rule="nonzero"/>
                    <path d="M68.1590585,33.2949352 C68.1279908,33.3111519 68.1105337,33.3282312 68.0933725,33.3280587 C67.5237977,33.321848 67.6214391,33.4419206 67.6199597,32.8068815 C67.6152256,30.8896879 67.6181844,28.9726669 67.6183323,27.0554733 C67.6183323,26.9636936 67.6170009,26.8717415 67.6199597,26.7794443 C67.6220309,26.71475 67.6528027,26.6698953 67.710204,26.6686877 C67.8378775,26.6657549 67.9658469,26.6657549 68.0935204,26.6704129 C68.1371632,26.6719655 68.1617214,26.7128523 68.1640885,26.7627101 C68.167935,26.8427585 68.1686747,26.9231519 68.1686747,27.0042354 C68.1686747,29.0017649 68.1686747,30.9992369 68.1686747,32.9966514 C68.1680829,33.0987821 68.1620173,33.2009128 68.1590585,33.2949352 Z" id="Shape" fill="#100F12" fill-rule="nonzero"/>
                    <path d="M6.64987811,31.1080728 C6.64987811,31.7417929 6.64987811,32.3755129 6.64987811,33.009233 C6.64987811,33.0830614 6.64848262,33.1568898 6.64429617,33.231035 C6.64430711,33.2525192 6.63663115,33.273087 6.62302826,33.2880226 C6.60942536,33.3029582 6.59106236,33.3109805 6.57214954,33.31025 C6.43260095,33.3143692 6.27086414,33.371404 6.16201624,33.2891788 C6.04912143,33.203785 6.1162443,33.0135106 6.1156861,32.8709236 C6.1113601,31.6774703 6.11331378,30.4841754 6.11331378,29.2904052 C6.11331378,29.2164184 6.11177874,29.1424316 6.11331378,29.0686032 C6.11777933,28.9062124 6.12908277,28.8887851 6.27630653,28.8906863 C6.70332522,28.8963898 6.64694759,28.8159073 6.64904082,29.3026043 C6.65197134,29.9041631 6.64987811,30.5061972 6.64987811,31.1080728 Z" id="Shape" fill="#151417" fill-rule="nonzero"/>
                    <path d="M6.09641832,28.0547826 C6.09527026,27.9804321 6.12432131,27.9088325 6.17684696,27.8565572 C6.22937261,27.8042819 6.30081921,27.7758628 6.3746489,27.7778781 C6.54825746,27.780178 6.65160025,27.9263578 6.65059514,28.0609463 C6.64959004,28.2027104 6.52121108,28.3277314 6.37839519,28.3331591 C6.23018829,28.3387708 6.09769754,28.2080461 6.09641832,28.0547826 Z" id="Shape" fill="#151417" fill-rule="nonzero"/>
                    <path d="M63.7349398,20.2777778 C63.7903614,20.115023 63.870492,19.9993645 64.0120482,20.0000026 C63.9561647,20.1627601 63.8610241,20.249584 63.7349398,20.2777778 Z" id="Shape" fill="#F9BE0E" fill-rule="nonzero"/>
                    <path d="M63.7349398,20.2777778 C63.7469036,20.0875097 63.8413209,19.9975518 64.0120482,20.0000506 C64.007198,20.1978152 63.8840028,20.2527895 63.7349398,20.2777778 Z" id="Shape" fill="#F9BE0E" fill-rule="nonzero"/>
                    <path d="M63.7349398,20.260547 C63.7638052,20.0485612 63.845711,19.9488315 64.0120482,20.0259173 C63.9770488,20.2224859 63.8926173,20.3198066 63.7349398,20.260547 Z" id="Shape" fill="#F9BE0E" fill-rule="nonzero"/>
                    <path d="M62.9036145,2.36111111 L62.626506,2.22222222 C62.739759,2.23962517 62.8385542,2.27744311 62.9036145,2.36111111 Z" id="Shape" fill="#E32921" fill-rule="nonzero"/>
                    <path d="M62.3493976,2.36111111 L62.0722892,2.22222222 C62.1855766,2.23110096 62.2843316,2.26471334 62.3493976,2.36111111 Z" id="Shape" fill="#E32921" fill-rule="nonzero"/>
                    <path d="M62.3493976,2.36111111 C62.2456864,2.33677541 62.1390307,2.31884384 62.0722892,2.22374248 C62.1930129,2.2150969 62.2957426,2.24103364 62.3493976,2.36111111 Z" id="Shape" fill="#E32921" fill-rule="nonzero"/>
                    <path d="M64.2918297,20.1384401 C64.2775076,20.0288179 64.3204741,19.9824521 64.4270947,20.0059662 C64.4340967,20.1076399 64.3809455,20.1434078 64.2918297,20.1384401 Z" id="Shape" fill="#F9BE0E" fill-rule="nonzero"/>
                    <path d="M63.7349398,20.6944444 C63.7497181,20.6144244 63.8068824,20.557122 63.873494,20.5555556 C63.8595806,20.6519566 63.8076952,20.6898029 63.7349398,20.6944444 Z" id="Shape" fill="#F9BE0E" fill-rule="nonzero"/>
                    <path d="M63.7349398,20.1350021 C63.7401469,20.0409205 63.7867045,19.9974204 63.8712434,20.000118 C63.8856395,20.118816 63.8298928,20.1511882 63.7349398,20.1350021 Z" id="Shape" fill="#F9BE0E" fill-rule="nonzero"/>
                    <path d="M52.0963855,15 C52.2990243,15.035935 52.3577895,15.1462556 52.373494,15.2777778 C52.182507,15.2350151 52.0968921,15.1390686 52.0963855,15 Z" id="Shape" fill="#F9BE0E" fill-rule="nonzero"/>
                    <path d="M50.9943255,15 C51.1013964,15.0425713 51.1359,15.1419044 51.1243988,15.2777778 C51.012125,15.2394636 50.9707754,15.145452 50.9943255,15 Z" id="Shape" fill="#F9BE0E" fill-rule="nonzero"/>
                    <path d="M50.9891254,15 C51.1033864,15.0087352 51.1380936,15.0602725 51.1232748,15.1388889 C51.0265624,15.1211274 50.9797661,15.0757046 50.9891254,15 Z" id="Shape" fill="#F9BE0E" fill-rule="nonzero"/>
                    <path d="M50.9940453,15 C51.1118618,15.0023691 51.1375875,15.0592277 51.122674,15.1388889 C51.015297,15.130597 50.9705566,15.0852878 50.9940453,15 Z" id="Shape" fill="#F9BE0E" fill-rule="nonzero"/>
                    <path d="M50.9895695,15.002844 C51.1191064,14.9851151 51.1338905,15.0526682 51.1240344,15.1388673 C51.0166737,15.14009 50.9793615,15.0893487 50.9895695,15.002844 Z" id="Shape" fill="#F9BE0E" fill-rule="nonzero"/>
                </g>
                <path d="M69.830601,31.1080728 C69.830601,31.7417929 69.830601,32.3755129 69.830601,33.009233 C69.830601,33.0830614 69.8292055,33.1568898 69.8250191,33.231035 C69.82503,33.2525192 69.817354,33.273087 69.8037512,33.2880226 C69.7901483,33.3029582 69.7717853,33.3109805 69.7528724,33.31025 C69.6133238,33.3143692 69.451587,33.371404 69.3427391,33.2891788 C69.2298443,33.203785 69.2969672,33.0135106 69.296409,32.8709236 C69.292083,31.6774703 69.2940367,30.4841754 69.2940367,29.2904052 C69.2940367,29.2164184 69.2925016,29.1424316 69.2940367,29.0686032 C69.2985022,28.9062124 69.3098057,28.8887851 69.4570294,28.8906863 C69.8840481,28.8963898 69.8276705,28.8159073 69.8297637,29.3026043 C69.8326942,29.9041631 69.830601,30.5061972 69.830601,31.1080728 Z" id="Shape" fill="#151417" fill-rule="nonzero"/>
                <path d="M69.2771412,28.0547826 C69.2759932,27.9804321 69.3050442,27.9088325 69.3575699,27.8565572 C69.4100955,27.8042819 69.4815421,27.7758628 69.5553718,27.7778781 C69.7289804,27.780178 69.8323231,27.9263578 69.831318,28.0609463 C69.8303129,28.2027104 69.701934,28.3277314 69.5591181,28.3331591 C69.4109112,28.3387708 69.2784204,28.2080461 69.2771412,28.0547826 Z" id="Shape" fill="#151417" fill-rule="nonzero"/>
            </g>
        </g>
    </g>
</svg>
