<svg id="Layer_1" data-name="Layer 1" xmlns="http://www.w3.org/2000/svg" xmlns:xlink="http://www.w3.org/1999/xlink" viewBox="0 0 1587.46 762.41"><defs><style>.cls-1{fill:url(#linear-gradient);}.cls-2{fill:#fff;}.cls-3{fill:url(#linear-gradient-2);}.cls-4{fill:url(#linear-gradient-3);}.cls-5{fill:url(#linear-gradient-4);}.cls-6{fill:url(#linear-gradient-5);}.cls-7{fill:url(#linear-gradient-6);}.cls-8{fill:url(#linear-gradient-7);}.cls-9{fill:url(#linear-gradient-8);}.cls-10{fill:url(#linear-gradient-9);}.cls-11{fill:url(#linear-gradient-10);}.cls-12{fill:url(#linear-gradient-11);}.cls-13{fill:url(#linear-gradient-12);}.cls-14{fill:url(#linear-gradient-13);}.cls-15{fill:url(#linear-gradient-14);}.cls-16{fill:url(#linear-gradient-15);}.cls-17{fill:url(#linear-gradient-16);}.cls-18{fill:url(#linear-gradient-17);}.cls-19{fill:url(#linear-gradient-18);}.cls-20{fill:url(#linear-gradient-19);}.cls-21{fill:url(#linear-gradient-20);}.cls-22{fill:url(#linear-gradient-21);}.cls-23{fill:url(#linear-gradient-22);}.cls-24{fill:url(#linear-gradient-23);}.cls-25{fill:url(#linear-gradient-24);}.cls-26{fill:url(#linear-gradient-25);}.cls-27{fill:url(#linear-gradient-26);}.cls-28{fill:url(#linear-gradient-27);}</style><linearGradient id="linear-gradient" x1="6385.42" y1="7545.84" x2="6449.01" y2="7545.84" gradientUnits="userSpaceOnUse"><stop offset="0.05" stop-color="#c7145b"/><stop offset="1" stop-color="#552f7f"/></linearGradient><linearGradient id="linear-gradient-2" x1="6464.74" y1="7556.53" x2="6522.14" y2="7556.53" xlink:href="#linear-gradient"/><linearGradient id="linear-gradient-3" x1="6538.97" y1="7550.99" x2="6577.86" y2="7550.99" xlink:href="#linear-gradient"/><linearGradient id="linear-gradient-4" x1="6595.81" y1="7556.5" x2="6669.82" y2="7556.5" xlink:href="#linear-gradient"/><linearGradient id="linear-gradient-5" x1="6686.65" y1="7548.17" x2="6699.73" y2="7548.17" xlink:href="#linear-gradient"/><linearGradient id="linear-gradient-6" x1="6716.57" y1="7556.53" x2="6769.97" y2="7556.53" xlink:href="#linear-gradient"/><linearGradient id="linear-gradient-7" x1="6785.7" y1="7556.53" x2="6839.11" y2="7556.53" xlink:href="#linear-gradient"/><linearGradient id="linear-gradient-8" x1="6852.62" y1="7556.53" x2="6910.01" y2="7556.53" xlink:href="#linear-gradient"/><linearGradient id="linear-gradient-9" x1="6954.05" y1="7545.78" x2="7026.62" y2="7545.78" xlink:href="#linear-gradient"/><linearGradient id="linear-gradient-10" x1="7039.91" y1="7556.53" x2="7100.3" y2="7556.53" xlink:href="#linear-gradient"/><linearGradient id="linear-gradient-11" x1="7110.43" y1="7556.53" x2="7167.82" y2="7556.53" xlink:href="#linear-gradient"/><linearGradient id="linear-gradient-12" x1="7177.23" y1="7556.53" x2="7237.62" y2="7556.53" xlink:href="#linear-gradient"/><linearGradient id="linear-gradient-13" x1="878.41" y1="692.5" x2="891.49" y2="692.5" xlink:href="#linear-gradient"/><linearGradient id="linear-gradient-14" x1="7283.76" y1="7556.53" x2="7341.15" y2="7556.53" xlink:href="#linear-gradient"/><linearGradient id="linear-gradient-15" x1="7354.66" y1="7570.16" x2="7412.06" y2="7570.16" xlink:href="#linear-gradient"/><linearGradient id="linear-gradient-16" x1="7423.69" y1="7556.53" x2="7484.07" y2="7556.53" xlink:href="#linear-gradient"/><linearGradient id="linear-gradient-17" x1="7496.97" y1="7556.53" x2="7535.87" y2="7556.53" xlink:href="#linear-gradient"/><linearGradient id="linear-gradient-18" x1="7546.61" y1="7556.53" x2="7604" y2="7556.53" xlink:href="#linear-gradient"/><linearGradient id="linear-gradient-19" x1="7645.49" y1="7545.78" x2="7714.24" y2="7545.78" xlink:href="#linear-gradient"/><linearGradient id="linear-gradient-20" x1="7728.3" y1="7548.17" x2="7741.38" y2="7548.17" xlink:href="#linear-gradient"/><linearGradient id="linear-gradient-21" x1="7757.11" y1="7556.53" x2="7796" y2="7556.53" xlink:href="#linear-gradient"/><linearGradient id="linear-gradient-22" x1="7806.19" y1="7556.53" x2="7852.56" y2="7556.53" xlink:href="#linear-gradient"/><linearGradient id="linear-gradient-23" x1="1493.96" y1="692.5" x2="1507.04" y2="692.5" xlink:href="#linear-gradient"/><linearGradient id="linear-gradient-24" x1="7898.53" y1="7556.53" x2="7958.92" y2="7556.53" xlink:href="#linear-gradient"/><linearGradient id="linear-gradient-25" x1="6601.72" y1="7429.84" x2="6601.72" y2="6862.79" xlink:href="#linear-gradient"/><linearGradient id="linear-gradient-26" x1="7155.37" y1="7429.1" x2="7155.37" y2="6862.79" xlink:href="#linear-gradient"/><linearGradient id="linear-gradient-27" x1="7719.26" y1="7429.1" x2="7719.26" y2="6862.79" xlink:href="#linear-gradient"/></defs><title>fdc1</title><path class="cls-1" d="M6386.4,7587.44a1,1,0,0,1-1-1V7532c0-18.49,9.84-27.86,29.25-27.86H6448a1,1,0,0,1,1,1v11.07a1,1,0,0,1-1,1h-33.62c-10.7,0-15.9,4.88-15.9,14.9v54.46a1,1,0,0,1-.29.71,1,1,0,0,1-.71.29Zm22.17-35.12a1,1,0,0,1-1-1v-11.07a1,1,0,0,1,1-1H6448a1,1,0,0,1,1,1v11.07a1,1,0,0,1-1,1Z" transform="translate(-6375.43 -6853.29)"/><path class="cls-2" d="M6448,7505.13v11.07h-33.62q-16.89,0-16.9,15.9v54.46l-11.07-.12V7532q0-26.86,28.25-26.86H6448m0,35.12v11.07h-39.44v-11.07H6448m0-37.12h-33.34c-9.91,0-17.5,2.44-22.57,7.26s-7.68,12.12-7.68,21.6v54.45a2,2,0,0,0,2,2l11.07.12h0a2,2,0,0,0,2-2V7532.1c0-9.48,4.74-13.9,14.9-13.9H6448a2,2,0,0,0,2-2v-11.07a2,2,0,0,0-2-2Zm0,35.12h-39.44a2,2,0,0,0-2,2v11.07a2,2,0,0,0,2,2H6448a2,2,0,0,0,2-2v-11.07a2,2,0,0,0-2-2Z" transform="translate(-6375.43 -6853.29)"/><path class="cls-3" d="M6491.33,7587.44c-17.64,0-26.59-8.5-26.59-25.26v-35.56a1,1,0,0,1,1-1h11.08a1,1,0,0,1,1,1v35.56c0,8.2,4.42,12.19,13.51,12.19,11.93,0,17.73-4,17.73-12.19v-35.56a1,1,0,0,1,1-1h11.08a1,1,0,0,1,1,1v35.56c0,16.76-10.35,25.26-30.75,25.26Z" transform="translate(-6375.43 -6853.29)"/><path class="cls-2" d="M6521.14,7526.62v35.56q0,24.27-29.75,24.26h-.06q-25.59,0-25.59-24.26v-35.56h11.08v35.56q0,13.18,14.51,13.19,18.73,0,18.73-13.19v-35.56h11.08m0-2h-11.08a2,2,0,0,0-2,2v35.56c0,4.8-1.74,11.19-16.73,11.19-8.53,0-12.51-3.56-12.51-11.19v-35.56a2,2,0,0,0-2-2h-11.08a2,2,0,0,0-2,2v35.56c0,8.62,2.36,15.23,7,19.65s11.55,6.61,20.57,6.61h.06c10.34,0,18.27-2.19,23.57-6.51s8.18-11.07,8.18-19.75v-35.56a2,2,0,0,0-2-2Z" transform="translate(-6375.43 -6853.29)"/><path class="cls-4" d="M6569.88,7587.44c-20.51,0-30.91-10.4-30.91-30.91v-41a1,1,0,0,1,1-1h11.08a1,1,0,0,1,1,1v10.08h15.62a1,1,0,0,1,1,1v11.08a1,1,0,0,1-1,1h-15.62v17.83c0,12,5.83,17.84,17.83,17.84h7a1,1,0,0,1,1,1v11.07a1,1,0,0,1-1,1Z" transform="translate(-6375.43 -6853.29)"/><path class="cls-2" d="M6551.05,7515.54v11.08h16.62v11.08h-16.62v18.83q0,18.84,18.83,18.84h7v11.07h-7q-29.91,0-29.91-29.91v-41h11.08m0-2H6540a2,2,0,0,0-2,2v41c0,10.48,2.71,18.5,8.07,23.85s13.37,8.06,23.84,8.06h7a2,2,0,0,0,2-2v-11.07a2,2,0,0,0-2-2h-7c-11.48,0-16.83-5.35-16.83-16.84V7539.7h14.62a2,2,0,0,0,2-2v-11.08a2,2,0,0,0-2-2h-14.62v-9.08a2,2,0,0,0-2-2Z" transform="translate(-6375.43 -6853.29)"/><path class="cls-5" d="M6657.74,7587.44a1,1,0,0,1-1-1v-38.66c0-6.24-2.76-9.14-8.69-9.14s-8.7,2.9-8.7,9.14v38.66a1,1,0,0,1-1,1h-11.08a1,1,0,0,1-1-1v-38.77c0-6.31-2.76-9.25-8.69-9.25s-8.7,3-8.7,9.36v38.66a1,1,0,0,1-1,1h-11.07a1,1,0,0,1-1-1v-38.66c0-14.74,7.32-22.22,21.77-22.22,7.75,0,12.88,2,15.29,5.95,2.63-3.92,7.72-5.91,15.17-5.95h.12c14.37,0,21.66,7.48,21.66,22.22v38.66a1,1,0,0,1-1,1Z" transform="translate(-6375.43 -6853.29)"/><path class="cls-2" d="M6648.16,7526.56q20.66,0,20.66,21.22v38.66h-11.08v-38.66q0-10.14-9.69-10.14t-9.7,10.14v38.66h-11.08v-38.77q0-10.24-9.69-10.25t-9.7,10.36v38.66h-11.07v-38.66q0-21.22,20.77-21.22,12.69,0,15.23,7.15,3-7.1,15.24-7.15h.11m0-2h-.11c-7.09,0-12.17,1.8-15.15,5.26-2.83-3.49-8-5.26-15.32-5.26-14.9,0-22.77,8-22.77,23.22v38.66a2,2,0,0,0,2,2h11.07a2,2,0,0,0,2-2v-38.66c0-5.78,2.38-8.36,7.7-8.36s7.69,2.54,7.69,8.25v38.77a2,2,0,0,0,2,2h11.08a2,2,0,0,0,2-2v-38.66c0-5.63,2.38-8.14,7.7-8.14s7.69,2.51,7.69,8.14v38.66a2,2,0,0,0,2,2h11.08a2,2,0,0,0,2-2v-38.66c0-15.19-7.84-23.22-22.66-23.22Z" transform="translate(-6375.43 -6853.29)"/><path class="cls-6" d="M6687.65,7587.44a1,1,0,0,1-1-1v-56.39a1,1,0,0,1,1-1h11.08a1,1,0,0,1,1,1v56.39a1,1,0,0,1-1,1Zm5.43-64.7c-2.93,0-6.43-1.19-6.43-6.87,0-4.52,2.26-6.94,6.53-7h.12c2.94,0,6.43,1.27,6.43,7.31,0,4.18-2.32,6.5-6.53,6.54h-.12Z" transform="translate(-6375.43 -6853.29)"/><path class="cls-2" d="M6693.3,7509.89q5.43,0,5.43,6.31c0,3.66-1.84,5.51-5.54,5.54h-.11c-3.62,0-5.43-1.95-5.43-5.87s1.85-5.94,5.54-6h.11m5.43,20.16v56.39h-11.08v-56.39h11.08m-5.43-22.16h-.11c-4.8,0-7.54,3-7.54,8s2.71,7.87,7.43,7.87h.11c4.8,0,7.54-2.79,7.54-7.54,0-5.28-2.7-8.31-7.43-8.31Zm5.43,20.16h-11.08a2,2,0,0,0-2,2v56.39a2,2,0,0,0,2,2h11.08a2,2,0,0,0,2-2v-56.39a2,2,0,0,0-2-2Z" transform="translate(-6375.43 -6853.29)"/><path class="cls-7" d="M6757.89,7587.44a1,1,0,0,1-1-1v-35.56c-.07-8.2-4.56-12.18-13.73-12.18s-13.51,3.91-13.51,12v35.78a1,1,0,0,1-1,1h-11.08a1,1,0,0,1-1-1v-35.78c0-16.62,8.93-25,26.53-25,17.77,0,26.8,8.5,26.87,25.26v35.56a1,1,0,0,1-1,1Z" transform="translate(-6375.43 -6853.29)"/><path class="cls-2" d="M6743.16,7526.62q25.69,0,25.81,24.26v35.56h-11.08v-35.56q-.11-13.19-14.73-13.18t-14.51,13v35.78h-11.08v-35.78q0-24,25.53-24h.06m0-2h-.06c-9,0-15.9,2.2-20.52,6.55s-7,10.94-7,19.49v35.78a2,2,0,0,0,2,2h11.08a2,2,0,0,0,2-2v-35.78c0-7.48,4-11,12.51-11s12.67,3.56,12.73,11.2v35.54a2,2,0,0,0,2,2H6769a2,2,0,0,0,2-2v-35.56c0-8.63-2.44-15.24-7.14-19.65s-11.62-6.61-20.67-6.61Z" transform="translate(-6375.43 -6853.29)"/><path class="cls-8" d="M6827,7587.44a1,1,0,0,1-1-1v-35.56c-.07-8.2-4.57-12.18-13.74-12.18s-13.51,3.91-13.51,12v35.78a1,1,0,0,1-1,1H6786.7a1,1,0,0,1-1-1v-35.78c0-16.62,8.93-25,26.54-25,17.77,0,26.79,8.5,26.87,25.26v35.56a1,1,0,0,1-1,1Z" transform="translate(-6375.43 -6853.29)"/><path class="cls-2" d="M6812.29,7526.62q25.71,0,25.82,24.26v35.56H6827v-35.56q-.12-13.19-14.74-13.18t-14.51,13v35.78H6786.7v-35.78q0-24,25.54-24h.05m0-2h-.05c-9,0-15.91,2.2-20.53,6.55s-7,10.94-7,19.49v35.78a2,2,0,0,0,2,2h11.08a2,2,0,0,0,2-2v-35.78c0-7.48,4-11,12.51-11s12.67,3.56,12.74,11.2v35.54a2,2,0,0,0,2,2h11.08a2,2,0,0,0,2-2v-35.56c0-8.63-2.45-15.24-7.14-19.65s-11.62-6.61-20.68-6.61Z" transform="translate(-6375.43 -6853.29)"/><path class="cls-9" d="M6872.56,7587.44c-13.23,0-19.94-6.3-19.94-18.72s6.71-18.73,19.94-18.73h14.29a1,1,0,0,1,1,1v11.08a1,1,0,0,1-1,1h-14.29c-6.15,0-6.86,3.22-6.86,5.65s.71,5.65,6.86,5.65h24.37v-26.92c0-6-2.74-8.75-8.64-8.75H6864.7a1,1,0,0,1-1-1v-11.08a1,1,0,0,1,1-1h23.59c14.42,0,21.72,7.34,21.72,21.83v39a1,1,0,0,1-1,1Z" transform="translate(-6375.43 -6853.29)"/><path class="cls-2" d="M6888.29,7526.62q20.73,0,20.72,20.83v39h-36.45q-18.95,0-18.94-17.72t18.94-17.73h14.29v11.08h-14.29q-7.86,0-7.86,6.65t7.86,6.65h25.37v-27.92q0-9.75-9.64-9.75H6864.7v-11.08h23.59m0-2H6864.7a2,2,0,0,0-2,2v11.08a2,2,0,0,0,2,2h23.59c5.36,0,7.64,2.31,7.64,7.75v25.92h-23.37c-5.15,0-5.86-2.24-5.86-4.65s.71-4.65,5.86-4.65h14.29a2,2,0,0,0,2-2V7551a2,2,0,0,0-2-2h-14.29c-13.7,0-20.94,6.82-20.94,19.73s7.24,19.72,20.94,19.72H6909a2,2,0,0,0,2-2v-39c0-14.94-7.85-22.83-22.72-22.83Z" transform="translate(-6375.43 -6853.29)"/><path class="cls-10" d="M6955.05,7587.44a1,1,0,0,1-1-1v-11.07a1,1,0,0,1,1-1h35.17c15.69,0,23.32-9.28,23.32-28.36,0-19.38-7.63-28.81-23.32-28.81h-35.17a1,1,0,0,1-1-1v-11.07a1,1,0,0,1,1-1h35.17c24.15,0,36.4,13.92,36.4,41.38v.28c-.08,27.64-12.32,41.65-36.4,41.65Z" transform="translate(-6375.43 -6853.29)"/><path class="cls-2" d="M6990.22,7505.13q35.4,0,35.4,40.38v.28q-.12,40.65-35.4,40.65h-35.17v-11.07h35.17q24.31,0,24.32-29.36,0-29.81-24.32-29.81h-35.17v-11.07h35.17m0-2h-35.17a2,2,0,0,0-2,2v11.07a2,2,0,0,0,2,2h35.17c15,0,22.32,9.1,22.32,27.81,0,18.41-7.3,27.36-22.32,27.36h-35.17a2,2,0,0,0-2,2v11.07a2,2,0,0,0,2,2h35.17c24.74,0,37.32-14.35,37.4-42.65v-.28c0-13.9-3.15-24.53-9.35-31.61s-15.7-10.77-28.05-10.77Z" transform="translate(-6375.43 -6853.29)"/><path class="cls-11" d="M7070.82,7587.44c-20.51,0-30.91-10.41-30.91-31s10.4-30.86,30.91-30.86h.33c19.34,0,29.15,7,29.15,20.89,0,11-4.91,16.56-14.58,16.56h-22.21a1,1,0,0,1-1-1V7551a1,1,0,0,1,1-1h17.84c5.26,0,5.87-2.18,5.87-3.82,0-5-5.5-7.47-16.34-7.47-12,0-17.89,6-17.89,18.38,0,11.63,5.85,17.29,17.89,17.29h17.34a1,1,0,0,1,1,1v11.07a1,1,0,0,1-1,1Z" transform="translate(-6375.43 -6853.29)"/><path class="cls-2" d="M7071.15,7526.62q28.14,0,28.15,19.89,0,15.56-13.58,15.56h-22.21V7551h17.84c4.57,0,6.87-1.6,6.87-4.82q0-8.47-17.34-8.47-18.9,0-18.89,19.39,0,18.27,18.89,18.28h17.34v11.07h-17.4q-29.91,0-29.91-30t29.91-29.86h.33m0-2h-.33c-10.47,0-18.5,2.71-23.85,8.05s-8.06,13.35-8.06,23.81,2.71,18.53,8.06,23.89,13.38,8.07,23.85,8.07h17.4a2,2,0,0,0,2-2v-11.07a2,2,0,0,0-2-2h-17.34c-11.53,0-16.89-5.18-16.89-16.28,0-11.87,5.36-17.39,16.89-17.39,10.18,0,15.34,2.18,15.34,6.47,0,.92,0,2.82-4.87,2.82h-17.84a2,2,0,0,0-2,2v11.08a2,2,0,0,0,2,2h22.21c7.11,0,15.58-3,15.58-17.56,0-7.29-2.66-12.86-7.89-16.55-5-3.55-12.5-5.34-22.26-5.34Z" transform="translate(-6375.43 -6853.29)"/><path class="cls-12" d="M7132.87,7587.44a1,1,0,0,1-.95-.66L7110.48,7527a1,1,0,0,1,1-1.33h12.46a1,1,0,0,1,.94.67l14.29,41.41,14.29-41.41a1,1,0,0,1,.95-.67h12.46a1,1,0,0,1,.94,1.34l-21.49,59.82a1,1,0,0,1-.94.66Z" transform="translate(-6375.43 -6853.29)"/><path class="cls-2" d="M7166.82,7526.62l-21.49,59.82h-12.46l-21.44-59.82h12.46l15.23,44.15,15.24-44.15h12.46m0-2h-12.46a2,2,0,0,0-1.89,1.35l-13.35,38.67L7125.78,7526a2,2,0,0,0-1.89-1.35h-12.46a2,2,0,0,0-1.89,2.67l21.44,59.83a2,2,0,0,0,1.89,1.32h12.46a2,2,0,0,0,1.88-1.32l21.49-59.83a2,2,0,0,0-1.88-2.67Zm0,4h0Z" transform="translate(-6375.43 -6853.29)"/><path class="cls-13" d="M7208.14,7587.44c-20.51,0-30.91-10.41-30.91-31s10.4-30.86,30.91-30.86h.34c19.33,0,29.14,7,29.14,20.89,0,11-4.9,16.56-14.57,16.56h-22.22a1,1,0,0,1-1-1V7551a1,1,0,0,1,1-1h17.84c5.26,0,5.87-2.18,5.87-3.82,0-5-5.5-7.47-16.34-7.47-12,0-17.89,6-17.89,18.38,0,11.63,5.85,17.29,17.89,17.29h17.34a1,1,0,0,1,1,1v11.07a1,1,0,0,1-1,1Z" transform="translate(-6375.43 -6853.29)"/><path class="cls-2" d="M7208.48,7526.62q28.14,0,28.14,19.89,0,15.56-13.57,15.56h-22.22V7551h17.84c4.58,0,6.87-1.6,6.87-4.82q0-8.47-17.34-8.47-18.89,0-18.89,19.39,0,18.27,18.89,18.28h17.34v11.07h-17.4q-29.91,0-29.91-30t29.91-29.86h.34m0-2h-.34c-10.47,0-18.49,2.71-23.84,8.05s-8.07,13.35-8.07,23.81,2.72,18.53,8.06,23.89,13.38,8.07,23.85,8.07h17.4a2,2,0,0,0,2-2v-11.07a2,2,0,0,0-2-2H7208.2c-11.52,0-16.89-5.18-16.89-16.28,0-11.87,5.37-17.39,16.89-17.39,10.18,0,15.34,2.18,15.34,6.47,0,.92,0,2.82-4.87,2.82h-17.84a2,2,0,0,0-2,2v11.08a2,2,0,0,0,2,2h22.22c7.1,0,15.57-3,15.57-17.56,0-7.29-2.65-12.86-7.88-16.55-5-3.55-12.51-5.34-22.26-5.34Z" transform="translate(-6375.43 -6853.29)"/><rect class="cls-14" x="878.41" y="650.84" width="13.08" height="83.32" rx="1" ry="1"/><path class="cls-2" d="M7265.92,7505.13v81.31h-11.08v-81.31h11.08m0-2h-11.08a2,2,0,0,0-2,2v81.31a2,2,0,0,0,2,2h11.08a2,2,0,0,0,2-2v-81.31a2,2,0,0,0-2-2Z" transform="translate(-6375.43 -6853.29)"/><path class="cls-15" d="M7312.23,7587.44c-18.89,0-28.47-10.4-28.47-30.91s9.65-30.91,28.7-30.91,28.69,10.4,28.69,30.91-9.65,30.84-28.69,30.91h-.23Zm.23-48.74c-10.51,0-15.62,5.83-15.62,17.83s5.11,17.84,15.62,17.84,15.54-5.84,15.61-17.84v-.22C7328.07,7544.46,7323,7538.7,7312.46,7538.7Z" transform="translate(-6375.43 -6853.29)"/><path class="cls-2" d="M7312.46,7526.62q27.69,0,27.69,29.91t-27.69,29.91h-.23q-27.46,0-27.47-29.91t27.7-29.91m0,48.75q16.5,0,16.61-18.84v-.22q0-18.62-16.61-18.61t-16.62,18.83q0,18.84,16.62,18.84m0-50.75c-9.77,0-17.26,2.73-22.25,8.12s-7.45,13.35-7.45,23.79,2.49,18.45,7.39,23.79,12.39,8.12,22.08,8.12h.23c9.77,0,17.25-2.78,22.24-8.17s7.45-13.33,7.45-23.74-2.51-18.45-7.45-23.79-12.48-8.12-22.24-8.12Zm0,48.75c-10,0-14.62-5.35-14.62-16.84s4.64-16.83,14.62-16.83,14.61,5.28,14.61,16.61v.22c-.06,11.48-4.71,16.84-14.61,16.84Z" transform="translate(-6375.43 -6853.29)"/><path class="cls-16" d="M7355.66,7614.7a1,1,0,0,1-1-1v-87.08a1,1,0,0,1,1-1h25.48c20.52,0,30.92,10.4,30.92,30.91s-10.4,30.91-30.92,30.91h-3.32a1,1,0,0,1-1-1v-11.07a1,1,0,0,1,1-1h3.32c12,0,17.78-5.84,17.78-17.84s-5.81-17.83-17.78-17.83h-13.4v75a1,1,0,0,1-1,1Z" transform="translate(-6375.43 -6853.29)"/><path class="cls-2" d="M7381.14,7526.62q29.93,0,29.92,29.91t-29.92,29.91h-3.32v-11.07h3.32q18.78,0,18.78-18.84t-18.78-18.83h-14.4v76h-11.08v-87.08h25.48m0-2h-25.48a2,2,0,0,0-2,2v87.08a2,2,0,0,0,2,2h11.08a2,2,0,0,0,2-2v-74h12.4c11.45,0,16.78,5.35,16.78,16.83s-5.33,16.84-16.78,16.84h-3.32a2,2,0,0,0-2,2v11.07a2,2,0,0,0,2,2h3.32c10.48,0,18.5-2.71,23.85-8.06s8.07-13.37,8.07-23.85-2.72-18.5-8.07-23.85-13.37-8.06-23.85-8.06Z" transform="translate(-6375.43 -6853.29)"/><path class="cls-17" d="M7454.6,7587.44c-20.51,0-30.91-10.41-30.91-31s10.4-30.86,30.91-30.86h.33c19.34,0,29.14,7,29.14,20.89,0,11-4.9,16.56-14.57,16.56h-22.21a1,1,0,0,1-1-1V7551a1,1,0,0,1,1-1h17.83c5.26,0,5.87-2.18,5.87-3.82,0-5-5.49-7.47-16.34-7.47-12,0-17.89,6-17.89,18.38,0,11.63,5.86,17.29,17.89,17.29H7472a1,1,0,0,1,1,1v11.07a1,1,0,0,1-1,1Z" transform="translate(-6375.43 -6853.29)"/><path class="cls-2" d="M7454.93,7526.62q28.14,0,28.14,19.89,0,15.56-13.57,15.56h-22.21V7551h17.83c4.58,0,6.87-1.6,6.87-4.82q0-8.47-17.34-8.47-18.88,0-18.89,19.39,0,18.27,18.89,18.28H7472v11.07H7454.6q-29.91,0-29.91-30t29.91-29.86h.33m0-2h-.33c-10.48,0-18.5,2.71-23.85,8.05s-8.06,13.35-8.06,23.81,2.71,18.53,8.06,23.89,13.37,8.07,23.85,8.07H7472a2,2,0,0,0,2-2v-11.07a2,2,0,0,0-2-2h-17.34c-11.52,0-16.89-5.18-16.89-16.28,0-11.87,5.37-17.39,16.89-17.39,10.18,0,15.34,2.18,15.34,6.47,0,.92,0,2.82-4.87,2.82h-17.83a2,2,0,0,0-2,2v11.08a2,2,0,0,0,2,2h22.21c7.1,0,15.57-3,15.57-17.56,0-7.29-2.65-12.86-7.88-16.55-5-3.55-12.5-5.34-22.26-5.34Z" transform="translate(-6375.43 -6853.29)"/><path class="cls-18" d="M7498,7587.44a1,1,0,0,1-1-1v-29.91c0-20.51,9.66-30.91,28.7-30.91h9.2a1,1,0,0,1,1,1v11.08a1,1,0,0,1-1,1h-9.2c-10.51,0-15.62,5.83-15.62,17.83v29.91a1,1,0,0,1-1,1Z" transform="translate(-6375.43 -6853.29)"/><path class="cls-2" d="M7534.86,7526.62v11.08h-9.19q-16.62,0-16.62,18.83v29.91H7498v-29.91q0-29.91,27.7-29.91h9.19m0-2h-9.19c-9.77,0-17.25,2.73-22.24,8.12s-7.46,13.35-7.46,23.79v29.91a2,2,0,0,0,2,2h11.08a2,2,0,0,0,2-2v-29.91c0-11.48,4.65-16.83,14.62-16.83h9.19a2,2,0,0,0,2-2v-11.08a2,2,0,0,0-2-2Z" transform="translate(-6375.43 -6853.29)"/><path class="cls-19" d="M7553.15,7587.44a1,1,0,0,1-1-1v-11.07a1,1,0,0,1,1-1h31.57c4.2,0,6.17-1.8,6.2-5.66s-2-5.64-6.2-5.64h-19.39c-12.42,0-18.72-6.3-18.72-18.73s6.3-18.72,18.72-18.72h32.13a1,1,0,0,1,1,1v11.08a1,1,0,0,1-1,1h-32.13c-3.9,0-5.64,1.7-5.64,5.53s1.79,5.76,5.64,5.76h19.39c12.8,0,19.28,6.26,19.28,18.62v.11c0,12.42-6.48,18.72-19.28,18.72Z" transform="translate(-6375.43 -6853.29)"/><path class="cls-2" d="M7597.46,7526.62v11.08h-32.13q-6.65,0-6.64,6.53,0,6.77,6.64,6.76h19.39q18.28,0,18.28,17.62v.11q0,17.73-18.28,17.72h-31.57v-11.07h31.57q7.15,0,7.2-6.65t-7.2-6.65h-19.39q-17.73,0-17.72-17.73t17.72-17.72h32.13m0-2h-32.13c-12.9,0-19.72,6.82-19.72,19.72s6.82,19.73,19.72,19.73h19.39c3.7,0,5.2,1.35,5.2,4.65s-1.53,4.65-5.2,4.65h-31.57a2,2,0,0,0-2,2v11.07a2,2,0,0,0,2,2h31.57c13.27,0,20.28-6.82,20.28-19.72v-.11c0-12.84-7-19.62-20.28-19.62h-19.39c-3.34,0-4.64-1.33-4.64-4.76,0-3.26,1.3-4.53,4.64-4.53h32.13a2,2,0,0,0,2-2v-11.08a2,2,0,0,0-2-2Z" transform="translate(-6375.43 -6853.29)"/><path class="cls-20" d="M7680.05,7587.33c-22.93-.07-34.56-14.05-34.56-41.54,0-27.65,11.63-41.66,34.57-41.66h33.18a1,1,0,0,1,1,1v11.07a1,1,0,0,1-1,1h-33.18c-14.46,0-21.49,9.35-21.49,28.59s7,28.58,21.49,28.58h33.18a1,1,0,0,1,1,1v11.07a1,1,0,0,1-.3.71,1,1,0,0,1-.7.29Z" transform="translate(-6375.43 -6853.29)"/><path class="cls-2" d="M7713.24,7505.13v11.07h-33.18q-22.5,0-22.49,29.59t22.49,29.58h33.18v11.07l-33.18-.11q-33.57-.1-33.57-40.54,0-40.66,33.57-40.66h33.18m0-2h-33.18c-23.61,0-35.57,14.35-35.57,42.66,0,28.15,12,42.47,35.56,42.54l33.18.11h0a2,2,0,0,0,1.41-.58,2,2,0,0,0,.59-1.42v-11.07a2,2,0,0,0-2-2h-33.18c-13.79,0-20.49-9-20.49-27.58s6.7-27.59,20.49-27.59h33.18a2,2,0,0,0,2-2v-11.07a2,2,0,0,0-2-2Z" transform="translate(-6375.43 -6853.29)"/><path class="cls-21" d="M7729.3,7587.44a1,1,0,0,1-1-1v-56.39a1,1,0,0,1,1-1h11.08a1,1,0,0,1,1,1v56.39a1,1,0,0,1-1,1Zm5.43-64.7c-2.93,0-6.43-1.19-6.43-6.87,0-4.52,2.26-6.94,6.53-7h.12c2.94,0,6.43,1.27,6.43,7.31,0,4.18-2.32,6.5-6.53,6.54h-.12Z" transform="translate(-6375.43 -6853.29)"/><path class="cls-2" d="M7735,7509.89q5.43,0,5.43,6.31,0,5.49-5.54,5.54h-.11c-3.62,0-5.43-1.95-5.43-5.87s1.85-5.94,5.54-6h.11m5.43,20.16v56.39H7729.3v-56.39h11.08m-5.43-22.16h-.11c-4.8,0-7.54,3-7.54,8s2.71,7.87,7.43,7.87h.11c4.8,0,7.54-2.79,7.54-7.54,0-5.28-2.71-8.31-7.43-8.31Zm5.43,20.16H7729.3a2,2,0,0,0-2,2v56.39a2,2,0,0,0,2,2h11.08a2,2,0,0,0,2-2v-56.39a2,2,0,0,0-2-2Z" transform="translate(-6375.43 -6853.29)"/><path class="cls-22" d="M7758.11,7587.44a1,1,0,0,1-1-1v-29.91c0-20.51,9.65-30.91,28.7-30.91H7795a1,1,0,0,1,1,1v11.08a1,1,0,0,1-1,1h-9.19c-10.51,0-15.62,5.83-15.62,17.83v29.91a1,1,0,0,1-1,1Z" transform="translate(-6375.43 -6853.29)"/><path class="cls-2" d="M7795,7526.62v11.08h-9.19q-16.62,0-16.62,18.83v29.91h-11.08v-29.91q0-29.91,27.7-29.91H7795m0-2h-9.19c-9.77,0-17.26,2.73-22.25,8.12s-7.45,13.35-7.45,23.79v29.91a2,2,0,0,0,2,2h11.08a2,2,0,0,0,2-2v-29.91c0-11.48,4.64-16.83,14.62-16.83H7795a2,2,0,0,0,2-2v-11.08a2,2,0,0,0-2-2Z" transform="translate(-6375.43 -6853.29)"/><path class="cls-23" d="M7833.06,7587.44c-17.83,0-26.87-10.38-26.87-30.85s9-31,26.87-31h18.5a1,1,0,0,1,1,1v11.08a1,1,0,0,1-1,1h-18.5c-9.28,0-13.79,5.85-13.79,17.89s4.51,17.78,13.79,17.78h18.5a1,1,0,0,1,1,1v11.07a1,1,0,0,1-1,1Z" transform="translate(-6375.43 -6853.29)"/><path class="cls-2" d="M7851.56,7526.62v11.08h-18.5q-14.79,0-14.79,18.89t14.79,18.78h18.5v11.07h-18.5q-25.87,0-25.87-29.85t25.87-30h18.5m0-2h-18.5c-9.19,0-16.23,2.75-20.92,8.18s-7,13.35-7,23.79,2.34,18.37,7,23.7,11.73,8.15,20.92,8.15h18.5a2,2,0,0,0,2-2v-11.07a2,2,0,0,0-2-2h-18.5c-5.49,0-12.79-1.74-12.79-16.78s7.3-16.89,12.79-16.89h18.5a2,2,0,0,0,2-2v-11.08a2,2,0,0,0-2-2Z" transform="translate(-6375.43 -6853.29)"/><rect class="cls-24" x="1493.96" y="650.84" width="13.08" height="83.32" rx="1" ry="1"/><path class="cls-2" d="M7881.47,7505.13v81.31h-11.08v-81.31h11.08m0-2h-11.08a2,2,0,0,0-2,2v81.31a2,2,0,0,0,2,2h11.08a2,2,0,0,0,2-2v-81.31a2,2,0,0,0-2-2Z" transform="translate(-6375.43 -6853.29)"/><path class="cls-25" d="M7929.44,7587.44c-20.51,0-30.91-10.41-30.91-31s10.4-30.86,30.91-30.86h.34c19.33,0,29.14,7,29.14,20.89,0,11-4.9,16.56-14.57,16.56h-22.22a1,1,0,0,1-1-1V7551a1,1,0,0,1,1-1H7940c5.26,0,5.87-2.18,5.87-3.82,0-5-5.5-7.47-16.34-7.47-12,0-17.89,6-17.89,18.38,0,11.63,5.85,17.29,17.89,17.29h17.34a1,1,0,0,1,1,1v11.07a1,1,0,0,1-1,1Z" transform="translate(-6375.43 -6853.29)"/><path class="cls-2" d="M7929.78,7526.62q28.14,0,28.14,19.89,0,15.56-13.57,15.56h-22.22V7551H7940c4.58,0,6.87-1.6,6.87-4.82q0-8.47-17.34-8.47-18.89,0-18.89,19.39,0,18.27,18.89,18.28h17.34v11.07h-17.4q-29.91,0-29.91-30t29.91-29.86h.34m0-2h-.34c-10.47,0-18.49,2.71-23.84,8.05s-8.07,13.35-8.07,23.81,2.72,18.53,8.07,23.89,13.37,8.07,23.84,8.07h17.4a2,2,0,0,0,2-2v-11.07a2,2,0,0,0-2-2H7929.5c-11.52,0-16.89-5.18-16.89-16.28,0-11.87,5.37-17.39,16.89-17.39,10.18,0,15.34,2.18,15.34,6.47,0,.92,0,2.82-4.87,2.82h-17.84a2,2,0,0,0-2,2v11.08a2,2,0,0,0,2,2h22.22c7.1,0,15.57-3,15.57-17.56,0-7.29-2.65-12.86-7.88-16.55-5-3.55-12.5-5.34-22.26-5.34Z" transform="translate(-6375.43 -6853.29)"/><path class="cls-26" d="M6394.34,7429.1a9.51,9.51,0,0,1-9.41-9.5V7053.11c0-62.7,17-110.64,50.49-142.5s83.55-47.82,149.15-47.82H6809a9.5,9.5,0,0,1,9.5,9.5v74.56a9.5,9.5,0,0,1-9.5,9.5h-226.3c-35.23,0-61.73,8.14-78.78,24.17-16.87,15.89-25.43,40.56-25.43,73.33v366.49a9.51,9.51,0,0,1-9.5,9.5Zm149.22-236.37a9.51,9.51,0,0,1-9.5-9.5v-74.57a9.5,9.5,0,0,1,9.5-9.5H6809a9.5,9.5,0,0,1,9.5,9.5v74.57a9.5,9.5,0,0,1-9.5,9.5Z" transform="translate(-6375.43 -6853.29)"/><path class="cls-2" d="M6809,6872.29v74.56h-226.3q-113.72,0-113.71,107v366.49l-74.57-.74V7053.11q0-180.82,190.14-180.82H6809m0,236.37v74.57H6543.56v-74.57H6809m0-255.37H6584.57c-33.49,0-63.41,4.1-88.92,12.19-26.43,8.38-48.9,21.25-66.78,38.25-35.46,33.72-53.44,84-53.44,149.38V7419.6a19,19,0,0,0,18.81,19l74.57.74h.19a19,19,0,0,0,19-19V7053.85c0-30.05,7.55-52.39,22.44-66.41,15.23-14.32,39.54-21.59,72.27-21.59H6809a19,19,0,0,0,19-19v-74.56a19,19,0,0,0-19-19Zm0,236.37H6543.56a19,19,0,0,0-19,19v74.57a19,19,0,0,0,19,19H6809a19,19,0,0,0,19-19v-74.57a19,19,0,0,0-19-19Z" transform="translate(-6375.43 -6853.29)"/><path class="cls-27" d="M6917.88,7429.1a9.5,9.5,0,0,1-9.5-9.5V7345a9.5,9.5,0,0,1,9.5-9.5h236.74c103.74,0,154.17-61.53,154.17-188.1,0-128.57-50.43-191.08-154.17-191.08H6917.88a9.5,9.5,0,0,1-9.5-9.5v-74.56a9.5,9.5,0,0,1,9.5-9.5h236.74c81.9,0,144.42,23.95,185.82,71.18,41.09,46.87,61.92,117.56,61.92,210.11v1.86c-.26,93.17-21.21,164.31-62.27,211.48-41.41,47.56-103.81,71.68-185.47,71.68Z" transform="translate(-6375.43 -6853.29)"/><path class="cls-2" d="M7154.62,6872.29q238.23,0,238.24,271.79v1.86q-.75,273.66-238.24,273.66H6917.88V7345h236.74q163.66,0,163.67-197.6,0-200.57-163.67-200.58H6917.88v-74.56h236.74m0-19H6917.88a19,19,0,0,0-19,19v74.56a19,19,0,0,0,19,19h236.74c49,0,84.33,14.12,108,43.16,24.32,29.8,36.64,76.37,36.64,138.42,0,61-12.3,106.8-36.55,136.08-23.7,28.61-59.06,42.52-108.12,42.52H6917.88a19,19,0,0,0-19,19v74.57a19,19,0,0,0,19,19h236.74c41.73,0,79-6.18,110.75-18.37,32.51-12.47,60.06-31.5,81.88-56.57,21.58-24.78,38-56,48.67-92.67,10.45-35.76,15.81-77.81,15.94-125v-1.92c0-46.89-5.27-88.69-15.65-124.24-10.67-36.49-27-67.49-48.62-92.13-21.83-24.9-49.42-43.81-82-56.19-31.8-12.1-69.14-18.23-111-18.23Z" transform="translate(-6375.43 -6853.29)"/><path class="cls-28" d="M7720.54,7428.35c-77.91-.26-137.38-24.49-176.74-72-38.92-47-58.66-117.8-58.66-210.37,0-93,19.73-164.14,58.65-211.28,39.38-47.69,98.85-71.87,176.78-71.87h223.32a9.5,9.5,0,0,1,9.5,9.5v74.56a9.5,9.5,0,0,1-9.5,9.5H7720.57c-95.46,0-141.87,62-141.87,189.59s46.41,189.59,141.87,189.59h223.32a9.5,9.5,0,0,1,9.5,9.5v74.57a9.49,9.49,0,0,1-9.5,9.5Z" transform="translate(-6375.43 -6853.29)"/><path class="cls-2" d="M7943.89,6872.29v74.56H7720.57q-151.36,0-151.37,199.09T7720.57,7345h223.32v74.57l-223.32-.75q-225.93-.75-225.93-272.91,0-273.64,225.93-273.65h223.32m0-19H7720.57c-80.9,0-142.84,25.34-184.1,75.32-20.46,24.78-35.95,55.92-46,92.57-9.82,35.69-14.8,77.66-14.8,124.76,0,46.86,5,88.64,14.81,124.18,10.08,36.5,25.57,67.53,46,92.25,41.25,49.82,103.16,75.21,184,75.48l223.32.75h.06a19,19,0,0,0,19-19V7345a19,19,0,0,0-19-19H7720.57c-44.59,0-76.78-13.83-98.4-42.27-22.54-29.64-34-76-34-137.82s11.43-108.17,34-137.81c21.62-28.45,53.81-42.28,98.4-42.28h223.32a19,19,0,0,0,19-19v-74.56a19,19,0,0,0-19-19Z" transform="translate(-6375.43 -6853.29)"/></svg>