<?xml version="1.0" standalone="no"?>
<!DOCTYPE svg PUBLIC "-//W3C//DTD SVG 20010904//EN"
 "http://www.w3.org/TR/2001/REC-SVG-20010904/DTD/svg10.dtd">
<svg version="1.0" xmlns="http://www.w3.org/2000/svg"
 width="512.000000pt" height="512.000000pt" viewBox="0 0 512.000000 512.000000"
 preserveAspectRatio="xMidYMid meet">
<metadata>
Created by potrace 1.11, written by Peter Selinger 2001-2013
</metadata>
<g transform="translate(0.000000,512.000000) scale(0.100000,-0.100000)"
fill="#000000" stroke="none">
<path d="M1235 5011 c-72 -33 -84 -102 -32 -193 44 -78 56 -98 287 -478 111
-184 210 -348 220 -365 9 -16 95 -158 190 -315 95 -157 182 -301 194 -321 12
-20 99 -165 194 -322 94 -156 172 -290 172 -296 0 -6 4 -11 8 -11 9 0 9 0 18
-130 5 -74 3 -107 -10 -151 -11 -37 -116 -223 -306 -540 -160 -266 -294 -491
-299 -499 -124 -198 -680 -1134 -689 -1159 -24 -66 1 -120 69 -148 19 -8 203
-11 630 -10 l604 2 55 24 c70 31 136 76 178 120 26 28 450 718 510 831 7 13
19 28 25 32 7 4 8 8 3 8 -5 0 -2 8 6 18 15 15 386 627 446 732 14 25 31 50 38
55 7 6 21 26 32 45 24 43 179 301 189 316 12 16 34 55 60 106 50 100 54 250 9
350 -19 44 -206 358 -570 957 -28 46 -62 103 -76 127 -14 23 -88 147 -165 274
-272 448 -395 654 -395 662 0 4 -4 8 -10 8 -5 0 -10 5 -10 11 0 5 -18 37 -41
70 -49 73 -132 140 -219 176 l-65 28 -605 2 c-570 3 -607 2 -645 -16z m1453
-2656 c-3 -3 -9 2 -12 12 -6 14 -5 15 5 6 7 -7 10 -15 7 -18z"/>
</g>
</svg>
